<svg width="386" height="258" viewBox="0 0 386 258" fill="none" xmlns="http://www.w3.org/2000/svg">
<g clip-path="url(#clip0_192_599)">
<path d="M386 0H0V258H386V0Z" fill="white"/>
<path d="M355.932 145.828C356.729 118.178 346.604 88.4859 330.847 69.9262C308.305 43.3747 272.273 35.6007 238.923 37.8793C211.167 39.7759 183.104 47.8411 155.229 43.4759C136.855 40.5986 119.562 32.0299 100.713 32.6263C45.6854 34.3674 17.915 95.8063 32.8429 144.444C45.5515 185.85 87.8404 195.847 126.427 194.897C140.582 194.548 153.971 193.734 168.058 195.043C185.774 196.689 203.284 200.121 220.484 204.634C258.733 214.669 311.718 227.74 340.896 191.388C350.839 179.002 355.443 162.799 355.932 145.828Z" fill="#F6F9FF"/>
<path d="M95.0174 219.848H177.873C179.985 219.848 181.518 218.132 181.296 216.015L166.361 73.2633C166.14 71.146 164.248 69.4297 162.137 69.4297H79.2807C77.1689 69.4297 75.6366 71.146 75.8581 73.2633L90.7927 216.015C91.0141 218.132 92.9056 219.848 95.0174 219.848Z" fill="#6880E4"/>
<path d="M97.2793 203.994H172.294L159.285 79.6475H84.2701L97.2793 203.994Z" fill="#D4DFFF"/>
<mask id="mask0_192_599" style="mask-type:luminance" maskUnits="userSpaceOnUse" x="84" y="79" width="89" height="125">
<path d="M97.2793 203.994H172.294L159.285 79.6475H84.2701L97.2793 203.994Z" fill="white"/>
</mask>
<g mask="url(#mask0_192_599)">
<path opacity="0.19" d="M95.481 77.3926C95.481 77.3926 109.351 168.748 175.571 182.488L180.175 208.589H90.0158L76.2933 77.4238L95.481 77.3926Z" fill="#6880E4"/>
</g>
<path d="M127.162 215.891H144.901C146.113 215.891 146.993 214.905 146.866 213.69L146.562 210.79C146.435 209.574 145.349 208.589 144.137 208.589H126.398C125.185 208.589 124.306 209.574 124.433 210.79L124.736 213.69C124.863 214.905 125.949 215.891 127.162 215.891Z" fill="#1B3D9E"/>
<path d="M129.479 122.69C129.419 121.32 130.375 120.158 131.589 120.126C141.795 119.859 183.756 118.937 184.312 121.871C184.945 125.212 187.49 170.009 185.752 170.786C184.013 171.563 133.332 171.238 132.387 170.102C131.571 169.122 129.917 132.667 129.479 122.69Z" fill="#FE8E9C"/>
<path d="M129.392 121.458C129.392 121.458 129.076 120.122 126.762 119.55C124.449 118.979 80.9662 114.308 77.0232 118.027C73.0802 121.746 80.1265 171.075 82.242 171.607C84.3576 172.138 131.275 171.717 132.937 170.043C134.599 168.37 129.392 121.458 129.392 121.458Z" fill="#FE8E9C"/>
<path d="M180.044 126.27C180.044 126.27 131.865 127.007 129.666 126.738C127.467 126.47 81.4016 123.663 80.782 124.241C80.1625 124.819 127.528 129.167 129.64 128.81C131.752 128.453 183.104 128.178 180.044 126.27Z" fill="#FC476A"/>
<path d="M82.2088 127.399C82.2088 127.399 129.489 130.359 129.802 131.038C130.115 131.717 133.213 164.966 132.015 165.934C130.817 166.901 86.9607 167.383 86.3089 166.861C85.657 166.339 80.4798 130.605 82.2088 127.399Z" fill="#FC476A"/>
<path d="M79.1917 117.175C79.1917 117.175 77.6061 122.176 78.1805 131.42C78.7548 140.663 84.3347 171.744 84.3347 171.744L82.2421 171.607C82.2421 171.607 79.7399 165.846 78.1425 152.077C76.5451 138.307 74.4589 122.721 77.0234 118.027C77.0234 118.027 77.7038 117.211 79.1917 117.175Z" fill="#FC476A"/>
<path d="M182.779 121.051C182.779 121.051 183.601 121.545 184.036 127.233C184.471 132.922 185.497 164.105 184.982 167.527C184.467 170.95 184.025 170.977 184.025 170.977C184.025 170.977 186.038 171.244 186.185 170.706C186.331 170.168 187.004 164.403 186.561 158.37C186.117 152.337 186.048 134.786 185.547 132.785C185.046 130.784 186.073 120.834 182.779 121.051Z" fill="#FC476A"/>
<path d="M132.664 130.803C132.664 130.803 181.632 129.639 181.8 130.449C181.968 131.259 182.541 137.604 182.247 138.533C181.952 139.461 133.52 140.204 133.033 139.368C132.545 138.533 131.584 131.708 132.664 130.803Z" fill="#FC476A"/>
<path d="M127.662 132.686L127.642 132.472C127.586 132.468 127.516 132.461 127.429 132.454L127.45 132.197C127.611 132.21 127.72 132.22 127.773 132.225L127.878 132.236L127.918 132.662L127.662 132.686Z" fill="#FE8E9C"/>
<path d="M96.7721 165.65H96.4934V165.392L97.1361 165.392V165.65L96.7721 165.65ZM97.7789 165.65L97.7787 165.392L98.4214 165.39L98.422 165.648L97.7789 165.65ZM95.8507 165.649L95.2079 165.648L95.2086 165.39L95.851 165.391L95.8507 165.649ZM99.0651 165.647L99.0643 165.389L99.7074 165.387L99.7083 165.645L99.0651 165.647ZM94.5651 165.647L93.9222 165.644L93.9233 165.386L94.566 165.389L94.5651 165.647ZM100.351 165.642L100.35 165.384L100.993 165.381L100.995 165.639L100.351 165.642ZM93.2793 165.641L92.6364 165.636L92.6383 165.378L93.2809 165.383L93.2793 165.641ZM101.638 165.636L101.636 165.378L102.279 165.374L102.281 165.632L101.638 165.636ZM91.9934 165.631C91.7723 165.629 91.5578 165.627 91.3505 165.625L91.3535 165.367C91.5605 165.369 91.7747 165.371 91.9958 165.373L91.9934 165.631ZM102.924 165.628L102.922 165.37L103.565 165.366L103.567 165.624L102.924 165.628ZM104.21 165.618L104.208 165.36L104.851 165.355L104.853 165.613L104.21 165.618ZM90.7074 165.617C90.4825 165.614 90.2679 165.61 90.0643 165.607L90.0687 165.349C90.2721 165.352 90.4864 165.356 90.711 165.359L90.7074 165.617ZM105.496 165.607L105.494 165.349L106.137 165.343L106.139 165.601L105.496 165.607ZM89.421 165.594C89.1857 165.589 88.9707 165.583 88.7774 165.577L88.7851 165.319C88.9779 165.325 89.1922 165.331 89.4268 165.336L89.421 165.594ZM106.782 165.594L106.779 165.336L107.411 165.329L107.424 165.458L107.414 165.587L106.782 165.594ZM108.068 165.579L108.065 165.321L108.71 165.313L108.713 165.571L108.068 165.579ZM109.357 165.563L109.354 165.305L109.997 165.296L110.001 165.554L109.357 165.563ZM88.1323 165.552C87.6688 165.528 87.5884 165.507 87.5456 165.487C87.4854 165.459 87.4516 165.397 87.4291 165.346L87.6642 165.241C87.6669 165.247 87.6693 165.252 87.6714 165.257C87.711 165.263 87.828 165.278 88.1454 165.294L88.1323 165.552ZM110.643 165.545L110.64 165.287L111.281 165.277L111.285 165.535L110.643 165.545ZM111.926 165.525L111.922 165.267L112.565 165.256L112.569 165.514L111.926 165.525ZM113.212 165.502L113.207 165.244L113.85 165.232L113.855 165.49L113.212 165.502ZM114.498 165.478L114.493 165.22L115.136 165.207L115.141 165.465L114.498 165.478ZM115.784 165.451L115.779 165.193L116.421 165.179L116.427 165.437L115.784 165.451ZM117.07 165.422L117.064 165.164L117.707 165.148L117.713 165.406L117.07 165.422ZM118.356 165.389L118.349 165.131L118.992 165.114L118.999 165.372L118.356 165.389ZM119.642 165.353L119.635 165.095L120.277 165.076L120.285 165.334L119.642 165.353ZM120.928 165.314L120.92 165.056L121.562 165.034L121.571 165.292L120.928 165.314ZM122.214 165.269L122.205 165.011C122.422 165.003 122.636 164.995 122.847 164.987L122.857 165.245C122.646 165.253 122.432 165.261 122.214 165.269ZM123.5 165.218L123.49 164.961C123.708 164.952 123.922 164.942 124.132 164.933L124.144 165.191C123.933 165.2 123.719 165.209 123.5 165.218ZM124.786 165.161L124.774 164.903C124.993 164.892 125.207 164.881 125.416 164.87L125.43 165.128C125.221 165.139 125.006 165.15 124.786 165.161ZM126.073 165.092L126.058 164.835C126.279 164.822 126.493 164.809 126.7 164.795L126.716 165.053C126.509 165.066 126.295 165.079 126.073 165.092ZM127.36 165.009L127.341 164.751C127.566 164.735 127.78 164.718 127.981 164.701L128.003 164.958C127.8 164.975 127.586 164.992 127.36 165.009ZM128.647 164.898L128.62 164.641C128.857 164.617 129.071 164.591 129.256 164.566L129.291 164.821C129.103 164.847 128.886 164.873 128.647 164.898ZM129.939 164.706L129.879 164.456C130.054 164.413 130.116 164.38 130.133 164.367C130.139 164.346 130.149 164.293 130.156 164.176L130.413 164.192C130.405 164.333 130.391 164.42 130.369 164.475C130.329 164.575 130.204 164.642 129.939 164.706ZM87.2543 164.694C87.2171 164.514 87.1768 164.298 87.1344 164.053L87.388 164.009C87.4299 164.252 87.4697 164.464 87.5063 164.642L87.2543 164.694ZM130.164 163.542C130.161 163.354 130.155 163.138 130.147 162.899L130.404 162.889C130.413 163.131 130.419 163.349 130.421 163.538L130.164 163.542ZM87.0292 163.413C86.9977 163.213 86.9653 162.999 86.9317 162.773L87.1863 162.735C87.2197 162.961 87.2521 163.173 87.2835 163.373L87.0292 163.413ZM130.119 162.254C130.11 162.051 130.099 161.836 130.086 161.61L130.343 161.596C130.356 161.823 130.367 162.038 130.377 162.242L130.119 162.254ZM86.8394 162.133C86.8105 161.927 86.781 161.714 86.7511 161.492L87.0059 161.458C87.0359 161.678 87.0654 161.891 87.0943 162.097L86.8394 162.133ZM130.049 160.966C130.037 160.758 130.024 160.544 130.009 160.322L130.266 160.306C130.28 160.528 130.294 160.743 130.306 160.951L130.049 160.966ZM86.6654 160.852C86.638 160.644 86.6102 160.43 86.5822 160.211L86.8374 160.179C86.8654 160.397 86.8931 160.611 86.9205 160.818L86.6654 160.852ZM129.967 159.678C129.954 159.469 129.939 159.254 129.924 159.035L130.18 159.017C130.196 159.237 130.21 159.452 130.224 159.661L129.967 159.678ZM86.5011 159.571C86.4748 159.361 86.4483 159.148 86.4215 158.93L86.6769 158.899C86.7036 159.116 86.7301 159.33 86.7563 159.539L86.5011 159.571ZM129.879 158.391L129.832 157.748L130.089 157.729L130.135 158.373L129.879 158.391ZM86.3436 158.29L86.2669 157.649L86.5224 157.618L86.599 158.259L86.3436 158.29ZM129.785 157.105L129.736 156.462L129.993 156.442L130.041 157.086L129.785 157.105ZM86.1915 157.008L86.1171 156.367L86.3728 156.337L86.4471 156.978L86.1915 157.008ZM129.687 155.819L129.637 155.176L129.893 155.156L129.943 155.799L129.687 155.819ZM86.0438 155.726L85.9713 155.084L86.227 155.055L86.2994 155.696L86.0438 155.726ZM129.586 154.533L129.535 153.89L129.791 153.87L129.842 154.513L129.586 154.533ZM85.8999 154.443L85.8293 153.802L86.0851 153.774L86.1557 154.415L85.8999 154.443ZM129.483 153.248L129.43 152.605L129.687 152.584L129.739 153.227L129.483 153.248ZM85.7594 153.161L85.6903 152.519L85.9461 152.492L86.0152 153.133L85.7594 153.161ZM129.378 151.962L129.324 151.32L129.581 151.298L129.634 151.941L129.378 151.962ZM85.6221 151.878L85.5546 151.236L85.8105 151.209L85.878 151.851L85.6221 151.878ZM129.271 150.677L129.217 150.035L129.473 150.013L129.527 150.656L129.271 150.677ZM85.4878 150.595L85.4217 149.953L85.6776 149.927L85.7437 150.568L85.4878 150.595ZM129.162 149.392L129.107 148.749L129.364 148.728L129.419 149.37L129.162 149.392ZM85.3564 149.313L85.2917 148.672L85.5478 148.646L85.6123 149.287L85.3564 149.313ZM129.052 148.105L128.997 147.462L129.253 147.44L129.309 148.083L129.052 148.105ZM85.2274 148.029L85.1637 147.385L85.4197 147.36L85.4834 148.004L85.2274 148.029ZM128.941 146.821L128.886 146.18L129.142 146.158L129.198 146.798L128.941 146.821ZM85.1012 146.743L85.0391 146.101L85.2953 146.076L85.3573 146.718L85.1012 146.743ZM128.83 145.538L128.773 144.895L129.03 144.873L129.086 145.515L128.83 145.538ZM84.9779 145.459L84.9173 144.817L85.1735 144.792L85.2341 145.434L84.9779 145.459ZM128.717 144.253L128.66 143.611L128.916 143.588L128.973 144.23L128.717 144.253ZM84.8575 144.174L84.7984 143.532L85.0546 143.508L85.1136 144.151L84.8575 144.174ZM128.603 142.968L128.545 142.326L128.802 142.303L128.859 142.945L128.603 142.968ZM84.7401 142.89L84.6827 142.247L84.939 142.224L84.9964 142.867L84.7401 142.89ZM128.488 141.684L128.43 141.041L128.686 141.018L128.744 141.66L128.488 141.684ZM84.6262 141.604L84.5705 140.962L84.8268 140.94L84.8826 141.582L84.6262 141.604ZM128.372 140.399L128.314 139.756L128.57 139.733L128.628 140.375L128.372 140.399ZM84.5157 140.319L84.4621 139.676L84.7185 139.654L84.7722 140.297L84.5157 140.319ZM128.256 139.114L128.197 138.472L128.453 138.448L128.512 139.091L128.256 139.114ZM84.4096 139.033C84.3921 138.816 84.3748 138.601 84.3581 138.389L84.6147 138.369C84.6314 138.581 84.6485 138.795 84.666 139.012L84.4096 139.033ZM128.138 137.829L128.08 137.187L128.336 137.163L128.395 137.805L128.138 137.829ZM84.3082 137.746C84.2915 137.529 84.2752 137.314 84.2595 137.102L84.5161 137.083C84.5319 137.295 84.548 137.509 84.5647 137.726L84.3082 137.746ZM128.021 136.544L127.961 135.901L128.217 135.877L128.277 136.52L128.021 136.544ZM84.2125 136.458C84.1968 136.24 84.1817 136.025 84.1672 135.814L84.4239 135.796C84.4384 136.007 84.4534 136.222 84.4691 136.44L84.2125 136.458ZM127.902 135.258L127.842 134.615L128.098 134.591L128.158 135.234L127.902 135.258ZM84.1239 135.17C84.1097 134.95 84.096 134.735 84.0833 134.525L84.3401 134.509C84.353 134.719 84.3665 134.933 84.3808 135.153L84.1239 135.17ZM127.782 133.971L127.722 133.327L127.978 133.303L128.039 133.947L127.782 133.971ZM84.0454 133.88C84.033 133.657 84.0215 133.442 84.0112 133.234L84.2682 133.222C84.2785 133.429 84.2899 133.644 84.3023 133.866L84.0454 133.88ZM83.9816 132.588C83.9721 132.36 83.9644 132.144 83.9582 131.941L84.2154 131.933C84.2216 132.136 84.2293 132.351 84.2387 132.577L83.9816 132.588ZM126.977 132.419L126.335 132.369L126.355 132.112L126.997 132.161L126.977 132.419ZM125.692 132.321L125.049 132.272L125.068 132.015L125.711 132.063L125.692 132.321ZM124.407 132.225L123.765 132.177L123.784 131.92L124.426 131.968L124.407 132.225ZM123.123 132.131L122.481 132.084L122.499 131.827L123.141 131.873L123.123 132.131ZM121.839 132.037L121.197 131.991L121.215 131.734L121.857 131.78L121.839 132.037ZM120.555 131.945L119.913 131.899L119.932 131.642L120.574 131.687L120.555 131.945ZM119.272 131.853L118.63 131.807L118.648 131.55L119.29 131.596L119.272 131.853ZM117.988 131.762L117.347 131.717L117.365 131.459L118.007 131.505L117.988 131.762ZM116.705 131.672L116.064 131.627L116.082 131.369L116.723 131.414L116.705 131.672ZM115.422 131.582L114.78 131.537L114.798 131.28L115.44 131.325L115.422 131.582ZM114.139 131.493L113.497 131.448L113.515 131.191L114.157 131.235L114.139 131.493ZM112.856 131.404L112.214 131.36L112.232 131.103L112.873 131.147L112.856 131.404ZM111.573 131.317L110.931 131.273L110.948 131.015L111.59 131.059L111.573 131.317ZM83.9441 131.293C83.9429 131.196 83.9424 131.103 83.9424 131.015C83.9424 130.881 83.9437 130.758 83.9464 130.644L84.2036 130.65C84.201 130.762 84.1997 130.883 84.1997 131.015C84.1997 131.102 84.2002 131.194 84.2014 131.29L83.9441 131.293ZM110.289 131.229L109.648 131.186L109.665 130.928L110.307 130.972L110.289 131.229ZM109.006 131.143L108.364 131.1L108.382 130.842L109.023 130.885L109.006 131.143ZM107.723 131.057L107.081 131.015L107.098 130.757L107.74 130.8L107.723 131.057ZM106.44 130.972L105.796 130.93L105.812 130.672L106.456 130.715L106.44 130.972ZM105.152 130.888L104.51 130.846L104.527 130.588L105.169 130.63L105.152 130.888ZM103.869 130.805L103.229 130.763L103.246 130.506L103.886 130.547L103.869 130.805ZM102.588 130.722L101.946 130.682L101.962 130.424L102.604 130.465L102.588 130.722ZM101.304 130.641L100.662 130.601L100.679 130.343L101.32 130.383L101.304 130.641ZM100.021 130.561L99.3789 130.521L99.3946 130.264L100.037 130.303L100.021 130.561ZM98.7369 130.482L98.0951 130.443L98.1105 130.185L98.7524 130.224L98.7369 130.482ZM97.4532 130.404L96.8112 130.366L96.8264 130.109L97.4685 130.147L97.4532 130.404ZM96.1692 130.328L95.5273 130.291L95.5419 130.033L96.1842 130.071L96.1692 130.328ZM94.8851 130.254L94.2429 130.218L94.2572 129.96L94.8996 129.997L94.8851 130.254ZM93.6009 130.182L92.9587 130.147L92.9725 129.89L93.6149 129.925L93.6009 130.182ZM92.3163 130.113L91.674 130.08L91.6872 129.822L92.3299 129.856L92.3163 130.113ZM91.0317 130.047L90.3891 130.016L90.4015 129.758L91.0445 129.79L91.0317 130.047ZM84.2476 130.026L83.9936 129.984C84.0209 129.819 84.0584 129.733 84.1234 129.687C84.1672 129.656 84.2435 129.622 84.596 129.602L84.6099 129.86C84.3922 129.872 84.309 129.888 84.2791 129.897C84.2723 129.914 84.2601 129.951 84.2476 130.026ZM89.7464 129.985C89.527 129.975 89.3127 129.966 89.1037 129.957L89.1149 129.699C89.3241 129.708 89.5386 129.718 89.7583 129.728L89.7464 129.985ZM88.461 129.93C88.2396 129.92 88.0251 129.912 87.8181 129.904L87.8276 129.647C88.0349 129.654 88.2496 129.663 88.4715 129.672L88.461 129.93ZM87.1747 129.882C86.9492 129.875 86.7346 129.869 86.5315 129.863L86.5381 129.606C86.7417 129.611 86.9569 129.617 87.1831 129.624L87.1747 129.882ZM85.8882 129.85C85.683 129.847 85.4945 129.845 85.3239 129.845L85.2457 129.846L85.245 129.588L85.3239 129.587C85.4958 129.587 85.6856 129.589 85.8922 129.592L85.8882 129.85Z" fill="#FE8E9C"/>
<path d="M133.911 141.228C133.626 141.248 133.41 141.492 133.422 141.778C133.584 145.372 134.602 167.002 135.665 166.884C136.824 166.756 182.374 167.73 182.715 166.898C183.055 166.066 182.765 142.427 181.489 140.642C181.489 140.642 139.805 140.824 133.911 141.228Z" fill="#FC476A"/>
<path d="M129.392 121.458L130.568 132.58C130.568 132.58 129.453 120.823 131.589 120.127C131.589 120.127 130.084 120.099 129.392 121.458Z" fill="#FC476A"/>
<path d="M132.554 170.229C132.554 170.229 133.249 169.3 133.255 167.873C133.261 166.447 133.107 162.428 133.107 162.428C133.107 162.428 134.221 169.325 133.318 170.334L132.554 170.229Z" fill="#FC476A"/>
<path d="M173.042 166.107L172.399 166.107L172.399 165.849L173.042 165.849V166.107H173.042ZM173.686 166.107L173.686 165.849L174.329 165.848L174.329 166.106L173.686 166.107ZM171.755 166.107L171.111 166.106L171.112 165.848L171.756 165.849L171.755 166.107ZM174.973 166.104L174.973 165.846L175.616 165.844L175.617 166.102L174.973 166.104ZM170.467 166.104L169.823 166.102L169.824 165.844L170.468 165.846L170.467 166.104ZM169.179 166.1L168.536 166.098L168.537 165.84L169.18 165.842L169.179 166.1ZM176.261 166.099L176.259 165.841C176.479 165.84 176.694 165.838 176.902 165.837L176.905 166.095C176.696 166.096 176.481 166.098 176.261 166.099ZM167.892 166.095L167.248 166.093L167.249 165.835L167.893 165.837L167.892 166.095ZM166.604 166.089L165.96 166.086L165.961 165.828L166.605 165.831L166.604 166.089ZM177.548 166.089L177.546 165.831C177.768 165.829 177.983 165.826 178.189 165.824L178.192 166.082C177.986 166.084 177.771 166.087 177.548 166.089ZM165.316 166.082L164.672 166.078L164.674 165.82L165.318 165.824L165.316 166.082ZM164.028 166.074L163.385 166.07L163.386 165.812L164.03 165.816L164.028 166.074ZM178.836 166.073L178.832 165.815C179.059 165.811 179.274 165.807 179.475 165.803L179.48 166.061C179.279 166.065 179.064 166.069 178.836 166.073ZM162.741 166.065L162.097 166.061L162.099 165.803L162.742 165.807L162.741 166.065ZM161.453 166.056L160.809 166.051L160.811 165.793L161.455 165.798L161.453 166.056ZM160.165 166.046L159.519 166.041L159.522 165.783L160.168 165.788L160.165 166.046ZM180.125 166.044L180.117 165.786C180.362 165.779 180.576 165.771 180.758 165.762L180.77 166.02C180.588 166.029 180.372 166.037 180.125 166.044ZM158.874 166.035L158.23 166.029L158.232 165.771L158.876 165.777L158.874 166.035ZM157.586 166.024L156.944 166.018L156.946 165.76L157.589 165.766L157.586 166.024ZM156.302 166.012L155.658 166.006L155.661 165.748L156.304 165.754L156.302 166.012ZM155.014 165.999L154.37 165.993L154.373 165.735L155.017 165.741L155.014 165.999ZM153.727 165.986L153.083 165.979L153.086 165.721L153.729 165.728L153.727 165.986ZM152.439 165.973L151.795 165.966L151.798 165.708L152.442 165.715L152.439 165.973ZM181.43 165.963L181.383 165.722C181.379 165.726 181.377 165.729 181.377 165.729C181.378 165.727 181.38 165.724 181.382 165.719L181.38 165.71C181.382 165.71 181.384 165.709 181.386 165.709C181.4 165.668 181.427 165.552 181.451 165.248L181.708 165.268C181.667 165.789 181.609 165.873 181.548 165.919C181.522 165.939 181.487 165.952 181.43 165.963ZM151.151 165.958L150.507 165.951L150.51 165.693L151.154 165.7L151.151 165.958ZM149.863 165.944L149.22 165.936L149.223 165.678L149.866 165.686L149.863 165.944ZM148.576 165.929L147.932 165.921L147.935 165.663L148.579 165.671L148.576 165.929ZM147.288 165.913L146.644 165.904L146.647 165.646L147.291 165.655L147.288 165.913ZM146 165.896L145.356 165.887L145.359 165.629L146.003 165.638L146 165.896ZM144.712 165.878L144.068 165.869L144.071 165.611L144.715 165.62L144.712 165.878ZM143.424 165.86L142.78 165.851L142.783 165.593L143.428 165.602L143.424 165.86ZM142.135 165.841L141.491 165.831L141.495 165.573L142.139 165.583L142.135 165.841ZM140.846 165.82L140.202 165.809L140.206 165.551L140.851 165.562L140.846 165.82ZM139.557 165.798L138.912 165.785L138.917 165.527L139.562 165.54L139.557 165.798ZM138.266 165.772C138.007 165.765 137.79 165.76 137.618 165.755L137.626 165.497C137.798 165.502 138.014 165.507 138.272 165.514L138.266 165.772ZM136.947 165.508C136.898 165.373 136.85 165.159 136.798 164.853L137.052 164.811C137.1 165.097 137.146 165.302 137.189 165.42L136.947 165.508ZM181.742 164.618L181.484 164.609C181.491 164.415 181.496 164.201 181.499 163.967L181.756 163.971C181.753 164.206 181.748 164.422 181.742 164.618ZM136.704 164.206C136.679 164.008 136.653 163.793 136.627 163.561L136.883 163.532C136.909 163.762 136.934 163.977 136.96 164.173L136.704 164.206ZM181.762 163.324L181.504 163.323L181.504 163.12C181.504 162.977 181.504 162.83 181.503 162.678L181.761 162.677C181.761 162.829 181.762 162.976 181.762 163.12L181.762 163.324ZM136.56 162.915C136.539 162.709 136.518 162.494 136.498 162.27L136.754 162.246C136.775 162.469 136.795 162.684 136.816 162.889L136.56 162.915ZM181.498 162.033C181.496 161.824 181.493 161.608 181.49 161.387L181.747 161.383C181.75 161.605 181.753 161.821 181.755 162.03L181.498 162.033ZM136.441 161.625C136.423 161.416 136.405 161.2 136.387 160.98L136.643 160.959C136.661 161.179 136.679 161.394 136.697 161.603L136.441 161.625ZM181.478 160.741C181.474 160.53 181.47 160.315 181.465 160.096L181.722 160.09C181.727 160.31 181.732 160.525 181.736 160.736L181.478 160.741ZM136.336 160.335C136.319 160.124 136.303 159.908 136.287 159.69L136.544 159.671C136.56 159.889 136.576 160.104 136.592 160.315L136.336 160.335ZM181.45 159.45C181.444 159.238 181.438 159.023 181.432 158.805L181.69 158.798C181.696 159.016 181.701 159.231 181.707 159.444L181.45 159.45ZM136.24 159.045C136.225 158.832 136.21 158.617 136.195 158.4L136.451 158.382C136.467 158.599 136.482 158.814 136.497 159.026L136.24 159.045ZM181.414 158.159C181.407 157.946 181.401 157.731 181.394 157.514L181.651 157.506C181.658 157.723 181.665 157.939 181.671 158.152L181.414 158.159ZM136.151 157.754L136.108 157.109L136.365 157.093L136.408 157.737L136.151 157.754ZM181.373 156.869L181.35 156.224L181.607 156.214L181.63 156.86L181.373 156.869ZM136.067 156.464L136.026 155.819L136.283 155.803L136.324 156.448L136.067 156.464ZM181.327 155.578L181.302 154.935L181.559 154.925L181.584 155.569L181.327 155.578ZM135.987 155.174L135.948 154.529L136.205 154.513L136.244 155.158L135.987 155.174ZM181.277 154.291L181.25 153.644L181.507 153.634L181.534 154.28L181.277 154.291ZM135.91 153.881L135.873 153.236L136.13 153.221L136.167 153.866L135.91 153.881ZM181.222 153L181.194 152.354L181.451 152.343L181.48 152.988L181.222 153ZM135.836 152.592L135.8 151.947L136.057 151.933L136.093 152.578L135.836 152.592ZM181.164 151.709L181.134 151.064L181.391 151.052L181.421 151.697L181.164 151.709ZM135.765 151.302L135.73 150.656L135.987 150.643L136.022 151.288L135.765 151.302ZM181.102 150.419L181.069 149.775L181.326 149.761L181.359 150.407L181.102 150.419ZM135.696 150.011L135.662 149.365L135.919 149.352L135.953 149.997L135.696 150.011ZM181.036 149.13L181.001 148.485L181.257 148.471L181.292 149.116L181.036 149.13ZM135.629 148.72L135.596 148.074L135.853 148.061L135.886 148.706L135.629 148.72ZM180.964 147.841C180.952 147.622 180.939 147.407 180.927 147.196L181.183 147.18C181.196 147.392 181.209 147.607 181.221 147.826L180.964 147.841ZM135.564 147.428L135.532 146.782L135.789 146.769L135.821 147.415L135.564 147.428ZM180.887 146.551C180.873 146.331 180.86 146.116 180.846 145.907L181.103 145.89C181.116 146.099 181.13 146.315 181.144 146.535L180.887 146.551ZM135.501 146.135L135.47 145.489L135.727 145.476L135.758 146.123L135.501 146.135ZM180.802 145.262C180.787 145.039 180.771 144.824 180.756 144.618L181.013 144.599C181.028 144.806 181.044 145.021 181.059 145.245L180.802 145.262ZM135.439 144.842L135.409 144.194L135.666 144.182L135.696 144.83L135.439 144.842ZM180.706 143.974C180.687 143.744 180.669 143.529 180.651 143.331L180.907 143.307C180.925 143.506 180.944 143.722 180.962 143.953L180.706 143.974ZM135.38 143.545L135.35 142.892L135.607 142.88L135.637 143.534L135.38 143.545ZM135.786 142.863L135.728 142.611C135.883 142.575 136.102 142.539 136.379 142.504L136.411 142.76C136.143 142.794 135.933 142.829 135.786 142.863ZM137.049 142.69L137.025 142.433C137.223 142.414 137.438 142.395 137.67 142.377L137.69 142.634C137.46 142.652 137.246 142.671 137.049 142.69ZM180.586 142.689C180.555 142.414 180.526 142.201 180.499 142.057L180.752 142.01C180.78 142.16 180.81 142.379 180.842 142.661L180.586 142.689ZM138.332 142.586L138.314 142.329C138.52 142.315 138.735 142.3 138.959 142.287L138.975 142.544C138.751 142.558 138.537 142.572 138.332 142.586ZM139.618 142.506L139.603 142.249C139.811 142.237 140.026 142.225 140.247 142.214L140.261 142.471C140.04 142.483 139.826 142.494 139.618 142.506ZM140.904 142.439L140.891 142.181C141.101 142.171 141.316 142.161 141.535 142.151L141.547 142.409C141.328 142.419 141.113 142.429 140.904 142.439ZM142.19 142.38L142.179 142.123L142.823 142.096L142.833 142.354L142.19 142.38ZM143.477 142.328L143.467 142.071L144.111 142.047L144.12 142.304L143.477 142.328ZM144.764 142.281L144.755 142.024L145.399 142.002L145.407 142.259L144.764 142.281ZM146.051 142.238L146.043 141.981L146.686 141.96L146.694 142.218L146.051 142.238ZM147.338 142.199L147.33 141.941L147.974 141.922L147.982 142.18L147.338 142.199ZM148.625 142.162L148.618 141.904L149.262 141.887L149.268 142.145L148.625 142.162ZM149.912 142.128L149.905 141.87L150.549 141.854L150.556 142.112L149.912 142.128ZM151.199 142.096L151.193 141.838L151.837 141.823L151.843 142.081L151.199 142.096ZM152.486 142.066L152.481 141.808L153.124 141.794L153.13 142.052L152.486 142.066ZM153.774 142.038L153.768 141.78L154.412 141.767L154.417 142.025L153.774 142.038ZM155.061 142.012L155.056 141.754L155.7 141.742L155.705 142L155.061 142.012ZM156.348 141.987L156.344 141.729L156.987 141.718L156.992 141.976L156.348 141.987ZM157.636 141.964L157.631 141.706L158.277 141.695L158.281 141.953L157.636 141.964ZM158.926 141.943L158.922 141.685L159.566 141.675L159.57 141.933L158.926 141.943ZM160.213 141.923L160.209 141.665L160.851 141.655L160.855 141.913L160.213 141.923ZM161.498 141.904L161.495 141.646L162.138 141.637L162.142 141.895L161.498 141.904ZM162.786 141.887L162.782 141.629L163.426 141.621L163.429 141.879L162.786 141.887ZM180.158 141.877C179.998 141.868 179.783 141.859 179.519 141.851L179.527 141.593C179.793 141.601 180.011 141.61 180.174 141.62L180.158 141.877ZM164.073 141.871L164.07 141.613L164.714 141.606L164.717 141.864L164.073 141.871ZM165.361 141.856L165.358 141.598L166.002 141.592L166.005 141.85L165.361 141.856ZM166.648 141.843L166.646 141.585L167.29 141.58L167.292 141.838L166.648 141.843ZM178.877 141.835C178.679 141.831 178.464 141.827 178.234 141.824L178.238 141.566C178.468 141.569 178.683 141.573 178.882 141.577L178.877 141.835ZM167.936 141.832L167.934 141.574L168.578 141.569L168.58 141.827L167.936 141.832ZM169.224 141.822L169.222 141.564L169.866 141.56L169.868 141.818L169.224 141.822ZM177.591 141.816C177.386 141.814 177.172 141.812 176.948 141.811L176.95 141.553C177.174 141.554 177.389 141.556 177.594 141.558L177.591 141.816ZM170.511 141.814L170.51 141.556L171.154 141.552L171.155 141.81L170.511 141.814ZM171.799 141.808L171.798 141.55L172.443 141.547L172.443 141.805L171.799 141.808ZM176.305 141.807L175.662 141.804L175.663 141.546L176.306 141.549L176.305 141.807ZM173.087 141.804L173.087 141.546L173.731 141.545L173.731 141.803L173.087 141.804ZM175.019 141.803L174.375 141.802L174.375 141.544L175.019 141.545L175.019 141.803Z" fill="#FE8E9C"/>
<path opacity="0.48" d="M87.0335 132.766C87.0335 132.766 88.482 162.861 89.5311 163.367C90.5803 163.874 127.623 164.653 128.239 163.13C128.854 161.607 127.192 134.66 125.912 133.957C124.632 133.254 86.9521 131.137 87.0335 132.766Z" fill="#FE8E9C"/>
<mask id="mask1_192_599" style="mask-type:luminance" maskUnits="userSpaceOnUse" x="87" y="132" width="42" height="33">
<path d="M87.0335 132.766C87.0335 132.766 88.482 162.861 89.5311 163.367C90.5803 163.874 127.623 164.653 128.239 163.13C128.854 161.607 127.192 134.66 125.912 133.957C124.632 133.254 86.9521 131.137 87.0335 132.766Z" fill="white"/>
</mask>
<g mask="url(#mask1_192_599)">
<path opacity="0.21" d="M96.0087 130.987L85.3649 148.111L86.8794 158.041L98.2808 144.513L89.3506 165.037L101.419 165.407L110.989 143.137L105.445 165.478L123.493 165.089L128.822 143.987L128.701 131.737L124.765 131.532L119.429 152.474L122.175 131.2L108.212 130.397L102.341 146.152L106.346 130.34L96.0087 130.987Z" fill="white"/>
</g>
<path d="M109.665 125.459C109.665 125.459 117.479 108.865 129.476 108.329C141.473 107.793 146.954 126.704 146.954 126.704L130.087 126.809L109.665 125.459Z" fill="#68A9FD"/>
<mask id="mask2_192_599" style="mask-type:luminance" maskUnits="userSpaceOnUse" x="109" y="108" width="38" height="19">
<path d="M109.665 125.459C109.665 125.459 117.479 108.865 129.476 108.329C141.473 107.793 146.954 126.704 146.954 126.704L130.087 126.809L109.665 125.459Z" fill="white"/>
</mask>
<g mask="url(#mask2_192_599)">
<path opacity="0.34" d="M124.927 107.903C124.927 107.903 128.95 117.188 131.195 119.157C133.44 121.127 148.407 123.19 148.407 123.19L148.781 128.831C148.781 128.831 127.64 127.199 124.927 127.399C122.214 127.598 107.702 125.816 107.702 125.816C107.702 125.816 111.082 116.813 112.766 115.218C114.45 113.624 124.927 107.903 124.927 107.903Z" fill="#6880E4"/>
</g>
<path d="M129.476 108.329C129.476 108.329 139.954 107.357 146.878 126.497C153.185 143.932 179.422 171.606 184.047 176.399C184.463 176.83 185.104 176.95 185.646 176.697C188.361 175.434 196.298 171.764 196.777 171.823C197.356 171.895 203.144 154.264 204.735 153.94C206.327 153.616 221.52 147.469 221.665 146.046C221.809 144.622 190.601 110.53 181.317 104.873C172.034 99.2151 130.472 106.998 129.476 108.329Z" fill="#7DB9F9"/>
<path d="M133.422 107.125C133.422 107.125 141.702 108.949 147.494 119.916C153.285 130.883 155.215 137.993 164.116 148.093C173.018 158.194 184.344 173.462 186.349 172.924C188.354 172.387 194.714 169.749 194.928 169.211C195.143 168.674 199.894 153.377 200.967 152.517C202.039 151.657 217.955 145.173 217.74 144.756C217.526 144.338 191.035 113.895 189.104 112.605C187.174 111.314 178.75 102.962 172.294 102.923C165.838 102.884 148.413 102.29 133.422 107.125Z" fill="#97C7FA"/>
<mask id="mask3_192_599" style="mask-type:luminance" maskUnits="userSpaceOnUse" x="133" y="102" width="85" height="71">
<path d="M133.422 107.125C133.422 107.125 141.702 108.949 147.494 119.916C153.285 130.883 155.215 137.993 164.116 148.093C173.018 158.194 184.344 173.462 186.349 172.924C188.354 172.387 194.714 169.749 194.928 169.211C195.143 168.674 199.894 153.377 200.967 152.517C202.039 151.657 217.955 145.173 217.74 144.756C217.526 144.338 191.035 113.895 189.104 112.605C187.174 111.314 178.75 102.962 172.294 102.923C165.838 102.884 148.413 102.29 133.422 107.125Z" fill="white"/>
</mask>
<g mask="url(#mask3_192_599)">
<path opacity="0.24" d="M206.49 127.399L195.284 179.536L173.245 178.03L178.362 141.82L168.898 164.022L155.554 147.618L167.498 115.13L150.891 140.642L132.554 114.257L158.554 101.006L186.288 101.948L194.177 110.799L188.082 144.639L197.662 114.257L206.49 127.399Z" fill="#F6F9FF"/>
</g>
<path d="M169.993 115.632C167.337 117.856 167.146 122.147 167.844 125.293C168.573 128.579 170.36 131.77 172.952 133.938C175.592 136.145 179.775 137.651 183.011 135.829C184.42 135.035 185.445 133.645 185.964 132.11C187.547 127.432 185.197 122.627 181.991 119.263C179.097 116.226 174.63 112.321 170.355 115.352C170.23 115.441 170.109 115.534 169.993 115.632Z" fill="#68A9FD"/>
<path d="M119.944 108.116H54.3501C53.494 108.116 52.7052 107.42 52.5885 106.561L46.8586 64.3986C46.7419 63.5402 47.3415 62.8442 48.1977 62.8442H113.792C114.648 62.8442 115.437 63.5402 115.553 64.3986L121.283 106.561C121.4 107.42 120.8 108.116 119.944 108.116Z" fill="#0872BA"/>
<path d="M82.127 74.9124H53.6105C53.33 74.9124 53.0716 74.6845 53.0334 74.4032L52.2057 68.3124C52.1675 68.0312 52.3638 67.8032 52.6443 67.8032H81.1608C81.4413 67.8032 81.6997 68.0312 81.7379 68.3124L82.5656 74.4032C82.6038 74.6845 82.4075 74.9124 82.127 74.9124Z" fill="#EC1F27"/>
<path d="M56.5477 78.7761L57.3537 80.0592C57.383 80.1059 57.4318 80.1381 57.4842 80.1456L58.9243 80.3513C59.0562 80.3702 59.1296 80.5295 59.0484 80.621L58.1621 81.6197C58.1299 81.6559 58.12 81.7083 58.1357 81.7596L58.5686 83.1699C58.6082 83.299 58.4864 83.3974 58.3625 83.3365L57.0089 82.6708C56.9596 82.6465 56.9048 82.6465 56.8622 82.6708L55.6895 83.3365C55.5821 83.3976 55.4336 83.299 55.4381 83.1699L55.4877 81.7596C55.4895 81.7083 55.4654 81.6561 55.4233 81.6197L54.2657 80.621C54.1597 80.5295 54.1897 80.3702 54.3164 80.3513L55.7007 80.1456C55.751 80.1381 55.791 80.1057 55.8076 80.0592L56.2648 78.7761C56.3069 78.6586 56.474 78.6586 56.5477 78.7761Z" fill="#EC1F27"/>
<path d="M65.4072 78.7761L66.2132 80.0592C66.2425 80.1059 66.2913 80.1381 66.3437 80.1456L67.7838 80.3513C67.9157 80.3702 67.9891 80.5295 67.9079 80.621L67.0216 81.6197C66.9895 81.6559 66.9795 81.7083 66.9952 81.7596L67.4281 83.1699C67.4677 83.299 67.3459 83.3974 67.222 83.3365L65.8683 82.6708C65.8191 82.6465 65.7642 82.6465 65.7216 82.6708L64.5489 83.3365C64.4415 83.3976 64.293 83.299 64.2975 83.1699L64.347 81.7596C64.3488 81.7083 64.3248 81.6561 64.2827 81.6197L63.1251 80.621C63.0191 80.5295 63.049 80.3702 63.1758 80.3513L64.5601 80.1456C64.6104 80.1381 64.6504 80.1057 64.667 80.0592L65.1242 78.7761C65.1664 78.6586 65.3335 78.6586 65.4072 78.7761Z" fill="#EC1F27"/>
<path d="M74.2669 78.7761L75.0728 80.0592C75.1022 80.1059 75.1509 80.1381 75.2033 80.1456L76.6435 80.3513C76.7753 80.3702 76.8487 80.5295 76.7675 80.621L75.8812 81.6197C75.8491 81.6559 75.8392 81.7083 75.8549 81.7596L76.2877 83.1699C76.3273 83.299 76.2055 83.3974 76.0816 83.3365L74.7279 82.6708C74.6786 82.6465 74.6238 82.6465 74.5812 82.6708L73.4085 83.3365C73.3012 83.3976 73.1526 83.299 73.1571 83.1699L73.2066 81.7596C73.2085 81.7083 73.1844 81.6561 73.1423 81.6197L71.9847 80.621C71.8787 80.5295 71.9087 80.3702 72.0354 80.3513L73.4197 80.1456C73.47 80.1381 73.51 80.1057 73.5266 80.0592L73.9838 78.7761C74.026 78.6586 74.193 78.6586 74.2669 78.7761Z" fill="#EC1F27"/>
<path d="M83.1264 78.7761L83.9323 80.0592C83.9617 80.1059 84.0104 80.1381 84.0628 80.1456L85.503 80.3513C85.6348 80.3702 85.7082 80.5295 85.627 80.621L84.7409 81.6197C84.7087 81.6559 84.6988 81.7083 84.7145 81.7596L85.1473 83.1699C85.187 83.299 85.0651 83.3974 84.9412 83.3365L83.5875 82.6708C83.5382 82.6465 83.4834 82.6465 83.4408 82.6708L82.2681 83.3365C82.1608 83.3976 82.0122 83.299 82.0167 83.1699L82.0663 81.7596C82.0681 81.7083 82.044 81.6561 82.0019 81.6197L80.8443 80.621C80.7383 80.5295 80.7683 80.3702 80.895 80.3513L82.2793 80.1456C82.3296 80.1381 82.3697 80.1057 82.3863 80.0592L82.8434 78.7761C82.8854 78.6586 83.0525 78.6586 83.1264 78.7761Z" fill="#EC1F27"/>
<path d="M91.9859 78.7761L92.7918 80.0592C92.8212 80.1059 92.8699 80.1381 92.9223 80.1456L94.3625 80.3513C94.4943 80.3702 94.5677 80.5295 94.4865 80.621L93.6002 81.6197C93.5681 81.6559 93.5582 81.7083 93.5739 81.7596L94.0067 83.1699C94.0463 83.299 93.9245 83.3974 93.8006 83.3365L92.447 82.6708C92.3977 82.6465 92.3429 82.6465 92.3002 82.6708L91.1275 83.3365C91.0201 83.3976 90.8716 83.299 90.8761 83.1699L90.9256 81.7596C90.9274 81.7083 90.9034 81.6561 90.8613 81.6197L89.7037 80.621C89.5977 80.5295 89.6277 80.3702 89.7544 80.3513L91.1387 80.1456C91.189 80.1381 91.229 80.1057 91.2456 80.0592L91.7028 78.7761C91.745 78.6586 91.912 78.6586 91.9859 78.7761Z" fill="white"/>
<path d="M107.8 90.2638H55.5804C55.3641 90.2638 55.165 90.088 55.1355 89.8711L54.8164 87.5229C54.7869 87.3061 54.9384 87.1304 55.1547 87.1304H107.374C107.591 87.1304 107.79 87.3062 107.819 87.5229L108.138 89.8711C108.168 90.0881 108.016 90.2638 107.8 90.2638Z" fill="#EC1F27"/>
<path d="M108.515 95.5239H56.2952C56.0789 95.5239 55.8797 95.3481 55.8502 95.1314L55.5311 92.7833C55.5017 92.5665 55.6531 92.3906 55.8694 92.3906H108.089C108.305 92.3906 108.504 92.5665 108.534 92.7833L108.853 95.1314C108.883 95.3482 108.731 95.5239 108.515 95.5239Z" fill="#EC1F27"/>
<path d="M83.5844 100.784H57.1723C56.8664 100.784 56.5846 100.535 56.543 100.228L56.2681 98.2057C56.2264 97.899 56.4407 97.6504 56.7465 97.6504H83.1587C83.4645 97.6504 83.7463 97.899 83.788 98.2057L84.0628 100.228C84.1045 100.535 83.8904 100.784 83.5844 100.784Z" fill="#EC1F27"/>
<path d="M199.143 99.8839H136.305C135.361 99.8839 134.475 99.1162 134.325 98.1694L131.956 83.1218C131.807 82.1749 132.452 81.4072 133.396 81.4072H196.233C197.178 81.4072 198.064 82.1749 198.213 83.1218L200.583 98.1694C200.732 99.1163 200.087 99.8839 199.143 99.8839Z" fill="#0872BA"/>
<path d="M141.621 90.2242C141.125 89.8714 140.756 89.3292 140.66 88.72C140.493 87.6565 141.217 86.7944 142.278 86.7944C143.338 86.7944 144.334 87.6565 144.501 88.72C144.597 89.3292 144.4 89.8714 144.015 90.2242C145.958 90.6886 147.649 92.2154 148.309 94.129C148.808 93.1789 149.006 92.0301 148.811 90.7922C148.297 87.5229 145.236 84.8726 141.975 84.8726C138.714 84.8726 136.488 87.5229 137.003 90.7922C137.198 92.0301 137.758 93.1789 138.556 94.129C138.613 92.2155 139.824 90.6886 141.621 90.2242Z" fill="#EC1F27"/>
<path d="M143.839 96.712C145.865 96.712 147.492 95.6882 148.309 94.129C147.649 92.2155 145.958 90.6887 144.015 90.2243C144.4 89.8715 144.597 89.3293 144.501 88.72C144.334 87.6565 143.338 86.7944 142.278 86.7944C141.217 86.7944 140.493 87.6565 140.66 88.72C140.756 89.3293 141.124 89.8715 141.621 90.2243C139.824 90.6887 138.613 92.2154 138.556 94.129C139.864 95.6882 141.813 96.712 143.839 96.712Z" fill="white"/>
<path d="M193.479 89.7959H155.984C155.534 89.7959 155.11 89.4294 155.039 88.9773L154.457 85.2835C154.386 84.8313 154.694 84.4648 155.145 84.4648H192.639C193.09 84.4648 193.514 84.8313 193.585 85.2835L194.166 88.9773C194.238 89.4294 193.93 89.7959 193.479 89.7959Z" fill="#EC1F27"/>
<path d="M194.586 96.8257H157.092C156.641 96.8257 156.217 96.4592 156.146 96.007L155.565 92.3133C155.493 91.8611 155.801 91.4946 156.252 91.4946H193.747C194.197 91.4946 194.621 91.8611 194.692 92.3133L195.274 96.007C195.345 96.4592 195.037 96.8257 194.586 96.8257Z" fill="#EC1F27"/>
<path d="M160.021 87.3462C160.099 87.8398 159.763 88.2398 159.27 88.2398C158.778 88.2398 158.316 87.8398 158.239 87.3462C158.161 86.8527 158.497 86.4526 158.989 86.4526C159.481 86.4526 159.943 86.8528 160.021 87.3462Z" fill="#0872BA"/>
<path d="M164.369 87.3462C164.446 87.8398 164.11 88.2398 163.618 88.2398C163.126 88.2398 162.664 87.8398 162.586 87.3462C162.508 86.8527 162.844 86.4526 163.337 86.4526C163.829 86.4526 164.291 86.8528 164.369 87.3462Z" fill="#0872BA"/>
<path d="M168.716 87.3462C168.794 87.8398 168.458 88.2398 167.966 88.2398C167.473 88.2398 167.011 87.8398 166.934 87.3462C166.856 86.8527 167.192 86.4526 167.684 86.4526C168.176 86.4528 168.638 86.8528 168.716 87.3462Z" fill="#0872BA"/>
<path d="M173.063 87.3462C173.141 87.8398 172.805 88.2398 172.313 88.2398C171.821 88.2398 171.359 87.8398 171.281 87.3462C171.203 86.8527 171.539 86.4526 172.032 86.4526C172.524 86.4528 172.986 86.8528 173.063 87.3462Z" fill="#0872BA"/>
<path d="M177.411 87.3462C177.489 87.8398 177.153 88.2398 176.66 88.2398C176.168 88.2398 175.706 87.8398 175.628 87.3462C175.551 86.8527 175.887 86.4526 176.379 86.4526C176.871 86.4528 177.333 86.8528 177.411 87.3462Z" fill="#0872BA"/>
<path d="M181.758 87.3462C181.836 87.8398 181.5 88.2398 181.008 88.2398C180.516 88.2398 180.054 87.8398 179.976 87.3462C179.898 86.8527 180.234 86.4526 180.727 86.4526C181.219 86.4526 181.681 86.8528 181.758 87.3462Z" fill="#0872BA"/>
<path d="M186.106 87.3462C186.184 87.8398 185.847 88.2398 185.355 88.2398C184.863 88.2398 184.401 87.8398 184.323 87.3462C184.246 86.8527 184.582 86.4526 185.074 86.4526C185.566 86.4526 186.028 86.8528 186.106 87.3462Z" fill="#0872BA"/>
<path d="M190.453 87.3462C190.531 87.8398 190.195 88.2398 189.703 88.2398C189.211 88.2398 188.749 87.8398 188.671 87.3462C188.593 86.8527 188.929 86.4526 189.421 86.4526C189.914 86.4526 190.376 86.8528 190.453 87.3462Z" fill="#0872BA"/>
<path d="M161.094 94.1607C161.172 94.6542 160.836 95.0543 160.344 95.0543C159.851 95.0543 159.389 94.6542 159.312 94.1607C159.234 93.6671 159.57 93.2671 160.062 93.2671C160.554 93.2671 161.016 93.6671 161.094 94.1607Z" fill="#0872BA"/>
<path d="M165.442 94.1607C165.519 94.6542 165.183 95.0543 164.691 95.0543C164.199 95.0543 163.737 94.6542 163.659 94.1607C163.581 93.6671 163.917 93.2671 164.41 93.2671C164.902 93.2671 165.364 93.6671 165.442 94.1607Z" fill="#0872BA"/>
<path d="M169.789 94.1607C169.867 94.6542 169.531 95.0543 169.039 95.0543C168.546 95.0543 168.084 94.6542 168.007 94.1607C167.929 93.6671 168.265 93.2671 168.757 93.2671C169.249 93.2671 169.711 93.6671 169.789 94.1607Z" fill="#0872BA"/>
<path d="M174.137 94.1607C174.214 94.6542 173.878 95.0543 173.386 95.0543C172.894 95.0543 172.432 94.6542 172.354 94.1607C172.276 93.6671 172.613 93.2671 173.105 93.2671C173.597 93.2671 174.059 93.6671 174.137 94.1607Z" fill="#0872BA"/>
<path d="M178.484 94.1607C178.562 94.6542 178.226 95.0543 177.734 95.0543C177.241 95.0543 176.779 94.6542 176.702 94.1607C176.624 93.6671 176.96 93.2671 177.452 93.2671C177.944 93.2671 178.406 93.6671 178.484 94.1607Z" fill="#0872BA"/>
<path d="M182.831 94.1607C182.909 94.6542 182.573 95.0543 182.081 95.0543C181.589 95.0543 181.127 94.6542 181.049 94.1607C180.971 93.6671 181.307 93.2671 181.8 93.2671C182.292 93.2671 182.754 93.6671 182.831 94.1607Z" fill="#0872BA"/>
<path d="M187.179 94.1607C187.257 94.6542 186.921 95.0543 186.428 95.0543C185.936 95.0543 185.474 94.6542 185.397 94.1607C185.319 93.6671 185.655 93.2671 186.147 93.2671C186.639 93.2671 187.101 93.6671 187.179 94.1607Z" fill="#0872BA"/>
<path d="M191.526 94.1607C191.604 94.6542 191.268 95.0543 190.776 95.0543C190.284 95.0543 189.822 94.6542 189.744 94.1607C189.666 93.6671 190.002 93.2671 190.494 93.2671C190.987 93.2671 191.449 93.6671 191.526 94.1607Z" fill="#0872BA"/>
<path d="M177.371 70.0312C177.204 69.8689 177.128 69.636 177.167 69.4063C177.587 66.9525 180.75 54.0024 189.562 50.0567C197.81 46.3638 207.884 39.0628 209.28 38.2628C210.677 37.4627 213.225 47.2565 214.622 47.6565C216.018 48.0566 222.241 51.9473 222.801 53.4617C223.362 54.976 202.348 62.0581 200.604 65.8584C198.861 69.6588 196.295 78.4598 195.284 78.8598C194.272 79.2599 186.19 77.0596 184.745 76.4595C183.478 75.9336 178.565 71.1941 177.371 70.0312Z" fill="#7DB9F9"/>
<path d="M178.39 69.0099C178.39 69.0099 181.541 57.354 186.702 53.5149C191.863 49.6758 195.193 48.8413 198.967 46.5043C202.74 44.1675 209.122 39.4938 209.289 39.8275C209.455 40.1614 212.563 47.8952 213.062 48.1734C213.562 48.4517 221.609 53.014 221.72 53.4035C221.831 53.7929 201.575 60.5809 199.743 64.5314C197.912 68.4818 195.47 77.6067 194.971 77.8292C194.471 78.0518 185.307 75.5818 184.697 75.1923C184.086 74.8029 177.895 69.1233 178.39 69.0099Z" fill="#97C7FA"/>
<mask id="mask4_192_599" style="mask-type:luminance" maskUnits="userSpaceOnUse" x="178" y="39" width="44" height="39">
<path d="M178.39 69.0099C178.39 69.0099 181.541 57.354 186.702 53.5149C191.863 49.6758 195.193 48.8413 198.967 46.5043C202.74 44.1675 209.122 39.4938 209.289 39.8275C209.455 40.1614 212.563 47.8952 213.062 48.1734C213.562 48.4517 221.609 53.014 221.72 53.4035C221.831 53.7929 201.575 60.5809 199.743 64.5314C197.912 68.4818 195.47 77.6067 194.971 77.8292C194.471 78.0518 185.307 75.5818 184.697 75.1923C184.086 74.8029 177.895 69.1233 178.39 69.0099Z" fill="white"/>
</mask>
<g mask="url(#mask4_192_599)">
<path opacity="0.24" d="M207.527 38.7314L212.745 61.1756L203.162 67.7472L200.444 53.2966L200.604 70.2206L197.943 78.9081L187.41 62.0392L192.409 79.9242L182.666 76.0237L178.965 60.0413L185.215 50.1474L193.102 59.9092L190.635 47.2934L200.041 41.3L203.921 50.9085L202.782 39.8104L207.527 38.7314Z" fill="#F6F9FF"/>
</g>
<path d="M195.79 52.8475C195.668 52.8863 195.552 52.9267 195.439 52.9681C193.564 53.6624 192.542 55.3886 192.418 57.3459C192.361 58.2468 192.57 59.1808 193.102 59.9092C193.741 60.7851 194.864 61.2447 195.931 61.1672C197.135 61.0799 198.042 60.0378 198.808 59.2175C199.543 58.4312 200.707 58.0001 201.125 56.9424C201.597 55.7445 201.369 54.2119 200.444 53.2965C199.202 52.0683 197.299 52.365 195.79 52.8475Z" fill="#68A9FD"/>
<path d="M106.715 193.938C109.74 193.938 112.192 191.479 112.192 188.446C112.192 185.414 109.74 182.955 106.715 182.955C103.69 182.955 101.238 185.414 101.238 188.446C101.238 191.479 103.69 193.938 106.715 193.938Z" fill="#D4DFFF"/>
<path d="M124.686 193.938C127.711 193.938 130.163 191.479 130.163 188.446C130.163 185.414 127.711 182.955 124.686 182.955C121.661 182.955 119.209 185.414 119.209 188.446C119.209 191.479 121.661 193.938 124.686 193.938Z" fill="#D4DFFF"/>
<path d="M142.657 193.938C145.681 193.938 148.134 191.479 148.134 188.446C148.134 185.414 145.681 182.955 142.657 182.955C139.632 182.955 137.179 185.414 137.179 188.446C137.179 191.479 139.632 193.938 142.657 193.938Z" fill="#D4DFFF"/>
<path d="M160.627 193.938C163.652 193.938 166.104 191.479 166.104 188.446C166.104 185.414 163.652 182.955 160.627 182.955C157.602 182.955 155.15 185.414 155.15 188.446C155.15 191.479 157.602 193.938 160.627 193.938Z" fill="#D4DFFF"/>
<path d="M309.808 117.983C310.656 117.001 310.423 115.407 309.288 114.42C308.153 113.434 306.545 113.43 305.697 114.411C304.849 115.393 305.082 116.987 306.218 117.974C307.353 118.96 308.961 118.964 309.808 117.983Z" fill="#D4DFFF"/>
<path d="M319.644 117.982C320.492 117.001 320.259 115.406 319.123 114.42C317.988 113.434 316.38 113.43 315.532 114.411C314.684 115.392 314.917 116.987 316.053 117.973C317.188 118.959 318.796 118.963 319.644 117.982Z" fill="#D4DFFF"/>
<path d="M329.479 117.983C330.327 117.001 330.094 115.407 328.959 114.42C327.823 113.434 326.216 113.43 325.368 114.411C324.52 115.393 324.753 116.987 325.888 117.974C327.024 118.96 328.631 118.964 329.479 117.983Z" fill="#D4DFFF"/>
<path d="M339.312 117.978C340.16 116.996 339.927 115.402 338.791 114.415C337.656 113.429 336.048 113.425 335.2 114.407C334.353 115.388 334.586 116.983 335.721 117.969C336.856 118.955 338.464 118.959 339.312 117.978Z" fill="#D4DFFF"/>
<path d="M311.062 126.406C311.91 125.425 311.677 123.83 310.541 122.844C309.406 121.858 307.798 121.854 306.951 122.835C306.103 123.816 306.336 125.411 307.471 126.397C308.606 127.383 310.214 127.387 311.062 126.406Z" fill="#D4DFFF"/>
<path d="M320.897 126.405C321.745 125.424 321.512 123.829 320.376 122.843C319.241 121.857 317.633 121.853 316.785 122.834C315.938 123.815 316.171 125.41 317.306 126.396C318.441 127.383 320.049 127.387 320.897 126.405Z" fill="#D4DFFF"/>
<path d="M331.214 124.617C331.421 126.009 330.453 127.136 329.051 127.137C327.649 127.137 326.345 126.009 326.138 124.618C325.931 123.227 326.899 122.099 328.301 122.099C329.703 122.099 331.007 123.226 331.214 124.617Z" fill="#D4DFFF"/>
<path d="M340.566 126.402C341.414 125.421 341.181 123.826 340.046 122.84C338.91 121.854 337.303 121.85 336.455 122.831C335.607 123.812 335.84 125.407 336.975 126.393C338.11 127.379 339.718 127.383 340.566 126.402Z" fill="#D4DFFF"/>
<path d="M312.799 133.045C313.006 134.436 312.038 135.564 310.636 135.564C309.234 135.565 307.93 134.437 307.723 133.046C307.516 131.655 308.484 130.527 309.886 130.527C311.288 130.527 312.592 131.654 312.799 133.045Z" fill="#D4DFFF"/>
<path d="M322.15 134.827C322.997 133.846 322.764 132.251 321.629 131.265C320.494 130.279 318.886 130.275 318.038 131.256C317.19 132.237 317.423 133.832 318.559 134.818C319.694 135.804 321.302 135.808 322.15 134.827Z" fill="#D4DFFF"/>
<path d="M332.468 133.042C332.675 134.433 331.707 135.561 330.305 135.561C328.903 135.561 327.599 134.434 327.392 133.043C327.185 131.652 328.153 130.524 329.555 130.523C330.957 130.523 332.261 131.651 332.468 133.042Z" fill="#D4DFFF"/>
<path d="M341.82 134.827C342.668 133.846 342.435 132.251 341.299 131.265C340.164 130.278 338.556 130.274 337.709 131.256C336.861 132.237 337.094 133.832 338.229 134.818C339.364 135.804 340.972 135.808 341.82 134.827Z" fill="#D4DFFF"/>
<path d="M313.57 143.257C314.418 142.276 314.185 140.681 313.05 139.695C311.915 138.709 310.307 138.705 309.459 139.686C308.611 140.667 308.844 142.262 309.98 143.248C311.115 144.234 312.723 144.238 313.57 143.257Z" fill="#D4DFFF"/>
<path d="M323.403 143.251C324.251 142.269 324.018 140.675 322.882 139.688C321.747 138.702 320.139 138.698 319.292 139.679C318.444 140.661 318.677 142.255 319.812 143.242C320.947 144.228 322.555 144.232 323.403 143.251Z" fill="#D4DFFF"/>
<path d="M333.238 143.25C334.086 142.269 333.853 140.674 332.717 139.688C331.582 138.702 329.974 138.698 329.127 139.679C328.279 140.66 328.512 142.255 329.647 143.241C330.782 144.227 332.39 144.231 333.238 143.25Z" fill="#D4DFFF"/>
<path d="M343.074 143.252C343.922 142.27 343.689 140.676 342.553 139.689C341.418 138.703 339.81 138.699 338.962 139.68C338.115 140.662 338.348 142.256 339.483 143.243C340.618 144.229 342.226 144.233 343.074 143.252Z" fill="#D4DFFF"/>
<path d="M45.0125 137.26C45.1565 138.228 44.483 139.012 43.5084 139.012C42.5337 139.012 41.6269 138.228 41.4829 137.261C41.3389 136.294 42.0124 135.509 42.987 135.509C43.9617 135.509 44.8685 136.293 45.0125 137.26Z" fill="#D4DFFF"/>
<path d="M51.5147 138.501C52.1043 137.819 51.9423 136.71 51.1529 136.024C50.3635 135.339 49.2456 135.336 48.6561 136.018C48.0665 136.7 48.2286 137.809 49.0179 138.495C49.8073 139.181 50.9252 139.183 51.5147 138.501Z" fill="#D4DFFF"/>
<path d="M58.3525 138.501C58.942 137.819 58.78 136.71 57.9906 136.024C57.2012 135.339 56.0834 135.336 55.4938 136.018C54.9043 136.7 55.0663 137.809 55.8557 138.495C56.6451 139.181 57.763 139.183 58.3525 138.501Z" fill="#D4DFFF"/>
<path d="M65.5268 137.257C65.6707 138.224 64.9973 139.008 64.0226 139.009C63.048 139.009 62.1411 138.225 61.9972 137.258C61.8532 136.29 62.5266 135.506 63.5013 135.506C64.4759 135.506 65.3828 136.29 65.5268 137.257Z" fill="#D4DFFF"/>
<path d="M45.5484 144.36C46.138 143.678 45.976 142.569 45.1866 141.883C44.3972 141.198 43.2793 141.195 42.6898 141.877C42.1002 142.559 42.2622 143.668 43.0516 144.354C43.841 145.04 44.9589 145.042 45.5484 144.36Z" fill="#D4DFFF"/>
<path d="M52.7224 143.117C52.8664 144.084 52.193 144.868 51.2183 144.868C50.2437 144.869 49.3368 144.085 49.1929 143.117C49.0489 142.15 49.7223 141.366 50.697 141.366C51.6716 141.365 52.5785 142.15 52.7224 143.117Z" fill="#D4DFFF"/>
<path d="M59.5606 143.116C59.7045 144.083 59.0311 144.867 58.0565 144.867C57.0818 144.868 56.175 144.084 56.031 143.116C55.887 142.149 56.5604 141.365 57.5351 141.365C58.5097 141.364 59.4166 142.149 59.5606 143.116Z" fill="#D4DFFF"/>
<path d="M66.0627 144.357C66.6522 143.674 66.4902 142.565 65.7008 141.88C64.9114 141.194 63.7936 141.191 63.2041 141.874C62.6145 142.556 62.7765 143.665 63.5659 144.35C64.3553 145.036 65.4732 145.039 66.0627 144.357Z" fill="#D4DFFF"/>
<path d="M46.42 150.218C47.0095 149.536 46.8475 148.427 46.0581 147.742C45.2687 147.056 44.1509 147.053 43.5614 147.735C42.9718 148.418 43.1338 149.527 43.9232 150.212C44.7126 150.898 45.8305 150.901 46.42 150.218Z" fill="#D4DFFF"/>
<path d="M53.5944 148.974C53.7384 149.941 53.0649 150.726 52.0903 150.726C51.1156 150.726 50.2088 149.942 50.0648 148.975C49.9208 148.008 50.5943 147.223 51.5689 147.223C52.5436 147.223 53.4504 148.007 53.5944 148.974Z" fill="#D4DFFF"/>
<path d="M60.4324 148.973C60.5764 149.94 59.9029 150.725 58.9283 150.725C57.9536 150.725 57.0468 149.941 56.9028 148.974C56.7588 148.007 57.4323 147.222 58.4069 147.222C59.3816 147.222 60.2884 148.006 60.4324 148.973Z" fill="#D4DFFF"/>
<path d="M66.934 150.216C67.5236 149.534 67.3616 148.425 66.5722 147.739C65.7828 147.054 64.6649 147.051 64.0754 147.733C63.4859 148.415 63.6479 149.524 64.4373 150.21C65.2267 150.895 66.3445 150.898 66.934 150.216Z" fill="#D4DFFF"/>
<path d="M47.6282 154.833C47.7722 155.8 47.0987 156.585 46.1241 156.585C45.1494 156.585 44.2426 155.801 44.0986 154.834C43.9546 153.866 44.6281 153.082 45.6027 153.082C46.5774 153.082 47.4842 153.866 47.6282 154.833Z" fill="#D4DFFF"/>
<path d="M54.1307 156.073C54.7202 155.391 54.5582 154.282 53.7688 153.597C52.9794 152.911 51.8616 152.908 51.272 153.59C50.6825 154.273 50.8445 155.382 51.6339 156.067C52.4233 156.753 53.5412 156.756 54.1307 156.073Z" fill="#D4DFFF"/>
<path d="M60.9677 156.075C61.5573 155.393 61.3953 154.284 60.6059 153.598C59.8165 152.912 58.6986 152.91 58.1091 153.592C57.5195 154.274 57.6816 155.383 58.471 156.069C59.2603 156.754 60.3782 156.757 60.9677 156.075Z" fill="#D4DFFF"/>
<path d="M68.1425 154.83C68.2865 155.797 67.613 156.581 66.6384 156.581C65.6637 156.581 64.7569 155.798 64.6129 154.83C64.4689 153.863 65.1424 153.079 66.117 153.079C67.0917 153.078 67.9985 153.862 68.1425 154.83Z" fill="#D4DFFF"/>
<path d="M269.639 237.112C295.706 237.112 316.836 235.362 316.836 233.204C316.836 231.046 295.706 229.297 269.639 229.297C243.573 229.297 222.443 231.046 222.443 233.204C222.443 235.362 243.573 237.112 269.639 237.112Z" fill="#D4DFFF"/>
<path d="M222.565 138.359C222.565 138.359 219.966 140.156 219.8 140.19C219.633 140.223 212.447 140.138 213.749 141.368C214.092 141.692 218.811 142.626 218.811 142.626L221.52 145.715L223.002 144.578L225.778 142.878L222.565 138.359Z" fill="#FE8E9C"/>
<mask id="mask5_192_599" style="mask-type:luminance" maskUnits="userSpaceOnUse" x="213" y="138" width="13" height="8">
<path d="M222.565 138.359C222.565 138.359 219.966 140.156 219.8 140.19C219.633 140.223 212.447 140.138 213.749 141.368C214.092 141.692 218.811 142.626 218.811 142.626L221.52 145.715L223.002 144.578L225.778 142.878L222.565 138.359Z" fill="white"/>
</mask>
<g mask="url(#mask5_192_599)">
<path d="M218.811 142.626C218.811 142.626 222.554 143.605 222.449 143.693C222.345 143.781 218.921 143.168 218.869 143.133C218.816 143.098 218.811 142.626 218.811 142.626Z" fill="#E57492"/>
</g>
<path d="M292.293 214.424L278.749 158.353C281.306 148.584 283.61 136.856 281.258 130.152L255.216 131.514C255.216 131.514 252.262 144.709 252.98 163.926C253.235 170.741 258.911 218.548 258.911 218.548H271.354C271.354 218.548 270.685 201.306 270.377 189.581L280.761 218.548L292.293 214.424Z" fill="#1B3D9E"/>
<mask id="mask6_192_599" style="mask-type:luminance" maskUnits="userSpaceOnUse" x="252" y="130" width="41" height="89">
<path d="M292.293 214.424L278.749 158.353C281.306 148.584 283.61 136.856 281.258 130.152L255.216 131.514C255.216 131.514 252.262 144.709 252.98 163.926C253.235 170.741 258.911 218.548 258.911 218.548H271.354C271.354 218.548 270.685 201.306 270.377 189.581L280.761 218.548L292.293 214.424Z" fill="white"/>
</mask>
<g mask="url(#mask6_192_599)">
<path d="M286.88 216.57C286.803 216.57 286.731 216.523 286.701 216.447C285.988 214.645 269.247 172.271 268.851 168.453C268.456 164.645 270.427 133.132 270.511 131.793C270.518 131.686 270.614 131.604 270.716 131.612C270.822 131.618 270.903 131.71 270.896 131.817C270.876 132.145 268.843 164.637 269.235 168.413C269.625 172.178 286.885 215.864 287.06 216.305C287.099 216.404 287.05 216.517 286.951 216.556C286.928 216.565 286.904 216.57 286.88 216.57Z" fill="#1C056D"/>
</g>
<mask id="mask7_192_599" style="mask-type:luminance" maskUnits="userSpaceOnUse" x="252" y="130" width="41" height="89">
<path d="M292.293 214.424L278.749 158.353C281.306 148.584 283.61 136.856 281.258 130.152L255.216 131.514C255.216 131.514 252.262 144.709 252.98 163.926C253.235 170.741 258.911 218.548 258.911 218.548H271.354C271.354 218.548 270.685 201.306 270.377 189.581L280.761 218.548L292.293 214.424Z" fill="white"/>
</mask>
<g mask="url(#mask7_192_599)">
<path d="M264.819 219.505C264.725 219.505 264.642 219.435 264.629 219.338C264.564 218.882 258.122 173.643 257.996 169.462C257.87 165.287 258.247 134.396 258.251 134.085C258.252 133.979 258.338 133.894 258.444 133.894C258.445 133.894 258.445 133.894 258.446 133.894C258.553 133.895 258.638 133.983 258.637 134.089C258.633 134.401 258.256 165.283 258.382 169.45C258.507 173.61 264.946 218.828 265.011 219.284C265.026 219.39 264.953 219.488 264.847 219.503C264.838 219.504 264.828 219.505 264.819 219.505Z" fill="#1C056D"/>
</g>
<path d="M282.178 135.191C282.125 132.971 281.205 129.68 281.205 129.68C281.205 129.68 265.132 132.602 261.687 132.179C258.243 131.756 255.216 131.514 255.216 131.514L254.875 133.526C254.875 133.526 257.172 135.871 259.704 137.318L259.698 137.316C259.698 137.316 260.803 152.559 261.23 156.833C261.656 161.107 262.912 166.306 262.912 166.306C262.147 163.021 261.909 138.27 261.909 138.27C265.124 139.115 282.178 135.191 282.178 135.191Z" fill="#1C056D"/>
<path d="M264.184 173.298C264.184 173.298 266.719 197.087 270.704 200.398L270.376 189.581L264.184 173.298Z" fill="#1C056D"/>
<path d="M269.599 78.479C269.599 78.479 280.26 85.926 282.178 90.9929C284.096 96.0599 279.019 130.873 279.019 130.873C279.019 130.873 257.625 133.758 255.216 131.514C252.807 129.271 252.722 95.4602 253.244 92.2554C253.766 89.0507 260.048 79.6688 260.048 79.6688L269.599 78.479Z" fill="white"/>
<path d="M260.048 79.6689C260.048 79.6689 252.401 87.0494 250.781 91.3228C250.69 91.5613 250.619 91.7903 250.568 92.0075C249.229 96.3103 241.975 119.492 240.701 121.048C239.296 122.764 221.41 136.505 221.665 136.984C221.92 137.464 227.671 146.018 228.693 146.046C229.591 146.07 246.346 132.778 250.417 129.538C250.548 131.531 250.735 132.75 250.997 132.787C252.442 132.994 256.365 131.649 256.365 131.649C256.365 131.649 258.332 99.5712 258.879 85.5654C259.034 81.6059 260.519 79.7546 260.048 79.6689Z" fill="#7DB9F9"/>
<path d="M235.568 109.476L229.535 109.582C229.316 109.586 229.107 109.392 229.069 109.148L226.808 94.7137C226.77 94.4699 226.916 94.2691 227.135 94.2653L233.169 94.1592C233.388 94.1554 233.596 94.3499 233.634 94.5937L235.895 109.028C235.933 109.272 235.787 109.472 235.568 109.476Z" fill="#6880E4"/>
<path d="M238.551 106.53C238.551 106.53 236.249 105.018 236.207 104.849C236.165 104.68 235.926 98.855 234.313 98.72C233.913 98.6864 234.467 102.393 234.173 102.435C233.878 102.477 227.838 100.809 227.629 100.956C227.421 101.102 227.54 102.423 228.199 102.869C228.199 102.869 227.525 103.984 228.088 104.527L228.507 104.836C228.507 104.836 227.963 105.634 228.275 106.093C228.588 106.553 228.921 106.678 228.921 106.678C228.921 106.678 228.442 107.012 228.546 107.597C228.65 108.182 228.936 108.697 229.553 109.045C230.171 109.393 233.603 109.768 233.603 109.768L236.382 111.602L238.551 106.53Z" fill="#FE8E9C"/>
<path d="M283.452 90.217C280.949 85.1705 275.717 79.4141 269.599 78.479C269.599 78.479 269.521 83.8504 269.395 89.2433C266.301 96.7592 260.846 109.628 259.432 110.493C257.428 111.72 238.535 102.881 238.535 102.881L233.642 114.321C233.642 114.321 255.536 125.627 262.39 126.905C264.815 127.357 268.24 124.523 271.624 120.423C272.751 127.798 273.912 134.087 274.297 134.087C275.148 134.087 284.868 132.137 285.235 131.406C285.601 130.674 286.504 96.3718 283.452 90.217Z" fill="#7DB9F9"/>
<mask id="mask8_192_599" style="mask-type:luminance" maskUnits="userSpaceOnUse" x="233" y="78" width="53" height="57">
<path d="M283.452 90.217C280.949 85.1705 275.717 79.4141 269.599 78.479C269.599 78.479 269.521 83.8504 269.395 89.2433C266.301 96.7592 260.846 109.628 259.432 110.493C257.428 111.72 238.535 102.881 238.535 102.881L233.642 114.321C233.642 114.321 255.536 125.627 262.39 126.905C264.815 127.357 268.24 124.523 271.624 120.423C272.751 127.798 273.912 134.087 274.297 134.087C275.148 134.087 284.868 132.137 285.235 131.406C285.601 130.674 286.504 96.3718 283.452 90.217Z" fill="white"/>
</mask>
<g mask="url(#mask8_192_599)">
<path opacity="0.34" d="M262.108 120.1C257.762 120.1 236.304 108.591 235.358 108.082C235.264 108.032 235.228 107.914 235.279 107.82C235.329 107.726 235.446 107.691 235.54 107.741C243.826 112.196 260.11 120.426 262.423 119.676C263.634 119.284 266.923 114.617 271.445 106.872C275.099 100.614 278.504 94.126 278.887 92.9266C278.919 92.8248 279.028 92.7688 279.129 92.8012C279.231 92.8338 279.287 92.9427 279.255 93.0445C278.866 94.2624 275.444 100.789 271.779 107.067C265.835 117.246 263.475 119.742 262.541 120.044C262.425 120.082 262.28 120.1 262.108 120.1Z" fill="#6880E4"/>
</g>
<mask id="mask9_192_599" style="mask-type:luminance" maskUnits="userSpaceOnUse" x="233" y="78" width="53" height="57">
<path d="M283.452 90.217C280.949 85.1705 275.717 79.4141 269.599 78.479C269.599 78.479 269.521 83.8504 269.395 89.2433C266.301 96.7592 260.846 109.628 259.432 110.493C257.428 111.72 238.535 102.881 238.535 102.881L233.642 114.321C233.642 114.321 255.536 125.627 262.39 126.905C264.815 127.357 268.24 124.523 271.624 120.423C272.751 127.798 273.912 134.087 274.297 134.087C275.148 134.087 284.868 132.137 285.235 131.406C285.601 130.674 286.504 96.3718 283.452 90.217Z" fill="white"/>
</mask>
<g mask="url(#mask9_192_599)">
<path opacity="0.34" d="M282.445 103.045C282.424 103.045 282.403 103.042 282.382 103.034C282.281 102.999 282.228 102.889 282.263 102.788C282.281 102.737 283.975 97.5992 278.943 93.1306C276.3 90.7838 273.854 89.9035 272.269 89.5785C270.552 89.2264 269.443 89.431 269.432 89.4332C269.327 89.4531 269.226 89.3846 269.206 89.2797C269.186 89.1748 269.254 89.0734 269.359 89.0532C269.546 89.0168 273.991 88.217 279.199 92.8409C281.93 95.2655 282.718 97.8707 282.899 99.6291C283.095 101.54 282.647 102.86 282.628 102.915C282.6 102.995 282.525 103.045 282.445 103.045Z" fill="#6880E4"/>
</g>
<path opacity="0.34" d="M271.624 120.423C271.624 120.423 282.01 104.422 283.452 100.338C283.452 100.338 274.774 122.29 272.325 124.84L271.624 120.423Z" fill="#6880E4"/>
<path d="M257.79 93.6723C257.79 94.1385 257.413 94.5165 256.948 94.5165C256.483 94.5165 256.106 94.1385 256.106 93.6723C256.106 93.2061 256.483 92.8281 256.948 92.8281C257.413 92.8281 257.79 93.2061 257.79 93.6723Z" fill="white"/>
<path d="M257.195 100.338C257.195 100.805 256.818 101.182 256.353 101.182C255.888 101.182 255.511 100.805 255.511 100.338C255.511 99.8721 255.888 99.4941 256.353 99.4941C256.818 99.4941 257.195 99.8721 257.195 100.338Z" fill="white"/>
<path d="M257.195 107.005C257.195 107.471 256.818 107.849 256.353 107.849C255.888 107.849 255.511 107.471 255.511 107.005C255.511 106.539 255.888 106.161 256.353 106.161C256.818 106.161 257.195 106.539 257.195 107.005Z" fill="white"/>
<path opacity="0.34" d="M251.22 107.853C251.303 105.018 251.717 90.7522 251.635 90.9963C251.545 91.2673 249.134 107.517 249.134 107.517L251.205 108.341C251.205 108.341 253.781 109.475 257.643 110.375L257.765 107.708C257.765 107.708 255.641 109.156 251.22 107.853Z" fill="#6880E4"/>
<path opacity="0.34" d="M250.417 122.422L241.87 118.422C241.87 118.422 248.678 122.535 248.494 123.223C248.31 123.91 248.194 131.303 248.194 131.303L250.417 129.537V124.632L256.777 127.906L257.067 125.221L250.417 122.422Z" fill="#6880E4"/>
<path d="M265.996 58.1231C264.814 56.7987 260.585 55.4249 257.221 56.1472C255.324 56.5543 253.875 58.0951 253.513 60.0055C252.694 64.3296 251.108 74.5246 254.183 75.3728C255.552 75.7505 257.142 75.3847 258.659 74.6735C259.038 77.2824 260.43 83.2083 260.675 83.9993C261.018 85.111 270.329 80.1881 269.599 78.4793C269.104 77.3211 264.49 69.6754 264.49 69.6754C265.172 67.8853 267.64 59.9656 265.996 58.1231Z" fill="#FE8E9C"/>
<mask id="mask10_192_599" style="mask-type:luminance" maskUnits="userSpaceOnUse" x="252" y="55" width="18" height="30">
<path d="M265.996 58.1231C264.814 56.7987 260.585 55.4249 257.221 56.1472C255.324 56.5543 253.875 58.0951 253.513 60.0055C252.694 64.3296 251.108 74.5246 254.183 75.3728C255.552 75.7505 257.142 75.3847 258.659 74.6735C259.038 77.2824 260.43 83.2083 260.675 83.9993C261.018 85.111 270.329 80.1881 269.599 78.4793C269.104 77.3211 264.49 69.6754 264.49 69.6754C265.172 67.8853 267.64 59.9656 265.996 58.1231Z" fill="white"/>
</mask>
<g mask="url(#mask10_192_599)">
<path d="M252.712 62.6105C252.832 62.5804 255.261 61.8619 255.816 61.1453C255.816 61.1453 256.577 61.8599 257.95 61.5132C259.323 61.1664 261.858 59.4019 261.858 59.4019C261.858 59.4019 261.981 62.3166 263.419 63.0124C263.419 63.0124 263.358 58.2224 262.83 58.0317C262.302 57.8411 252.638 58.18 252.368 58.9213C252.098 59.6626 252.712 62.6105 252.712 62.6105Z" fill="#E57492"/>
</g>
<path d="M253.515 69.7469C253.515 69.7469 255.024 70.9146 257.15 69.1909C257.15 69.1909 257.041 70.8669 255.555 71.133C253.597 71.4841 253.515 69.7469 253.515 69.7469Z" fill="white"/>
<path d="M256.688 61.5132C256.688 61.5132 252.992 66.4869 253.801 67.0192C254.61 67.5514 257.188 66.352 257.188 66.352C257.16 66.7079 256.925 67.0131 256.589 67.1318C255.617 67.4753 253.73 68.0601 253.327 67.2823C252.618 65.9156 256.688 61.5132 256.688 61.5132Z" fill="#E57492"/>
<path d="M258.659 74.6732C258.659 74.6732 261.702 72.5547 262.695 71.2837C262.695 71.2837 261.879 75.6062 259.045 76.8426L258.659 74.6732Z" fill="#E57492"/>
<path d="M262.326 58.8855C262.423 58.2611 258.475 60.4701 255.867 60.4496C255.74 60.4486 255.586 60.4292 255.533 60.313C255.503 60.2459 255.519 60.168 255.538 60.097C255.637 59.7361 255.814 59.397 256.054 59.1107C254.881 60.2329 253.486 61.1218 251.975 61.7112C251.585 61.8636 251.177 61.9977 250.758 61.9936C250.339 61.9895 249.902 61.8264 249.658 61.4846C249.481 61.2362 249.422 60.9229 249.396 60.6187C249.264 59.089 249.861 57.5373 250.888 56.3981C251.914 55.2589 253.343 54.52 254.841 54.203C253.938 55.1486 252.567 55.8866 251.27 56.0414C251.053 56.0673 250.823 56.0787 250.625 55.984C250.156 55.7586 250.129 55.0992 250.243 54.5899C250.497 53.4555 251.11 52.4046 251.971 51.6265C252.741 50.9316 253.686 50.4623 254.65 50.0834C255.56 49.7258 256.505 49.4393 257.478 49.3445C260.679 49.0327 263.965 51.0649 265.124 54.0724C265.223 53.5023 265.811 53.0991 266.388 53.1015C266.966 53.104 267.503 53.4457 267.861 53.8995C268.218 54.3533 268.421 54.9098 268.579 55.4665C269.275 57.9242 269.194 60.5827 268.445 63.0248C267.696 65.4671 266.299 67.8759 264.49 69.6752C264.49 69.6752 263.903 65.8381 264.064 65.2729C264.064 65.2729 266.48 64.0215 265.835 61.9223C265.191 59.823 263.42 63.0122 263.42 63.0122C263.42 63.0122 262.098 60.3619 262.326 58.8855Z" fill="#1B3D9E"/>
<path d="M261.68 218.547L262.326 224.172C262.326 224.172 264.974 225.791 266.459 225.662C267.945 225.532 269.043 223.913 269.043 223.913V218.547H261.68Z" fill="#FE8E9C"/>
<path d="M262.317 224.099C262.317 224.099 249.186 230.608 248.91 231.348C248.711 231.878 248.56 233.026 248.49 233.635C248.467 233.841 248.636 234.018 248.843 234.003C251.806 233.789 270.443 232.429 270.783 232.088C271.152 231.718 270.506 225.472 270.276 225.01C270.045 224.547 269.043 223.914 269.043 223.914C269.043 223.914 266.273 226.779 262.317 224.099Z" fill="#1B3D9E"/>
<mask id="mask11_192_599" style="mask-type:luminance" maskUnits="userSpaceOnUse" x="248" y="223" width="23" height="12">
<path d="M262.317 224.099C262.317 224.099 249.186 230.608 248.91 231.348C248.711 231.878 248.56 233.026 248.49 233.635C248.467 233.841 248.636 234.018 248.843 234.003C251.806 233.789 270.443 232.429 270.783 232.088C271.152 231.718 270.506 225.472 270.276 225.01C270.045 224.547 269.043 223.914 269.043 223.914C269.043 223.914 266.273 226.779 262.317 224.099Z" fill="white"/>
</mask>
<g mask="url(#mask11_192_599)">
<path d="M252.454 228.959C252.454 228.959 254.301 229.666 254.891 232.418C254.891 232.418 271.003 230.823 271.106 230.952C271.208 231.08 271.414 232.289 271.08 232.367C270.747 232.444 249.298 234.579 248.734 234.373C248.17 234.167 248.041 234.219 248.041 233.807C248.041 233.395 248.349 231.08 248.683 230.798C249.016 230.515 252.454 228.959 252.454 228.959Z" fill="#1C056D"/>
</g>
<mask id="mask12_192_599" style="mask-type:luminance" maskUnits="userSpaceOnUse" x="248" y="223" width="23" height="12">
<path d="M262.317 224.099C262.317 224.099 249.186 230.608 248.91 231.348C248.711 231.878 248.56 233.026 248.49 233.635C248.467 233.841 248.636 234.018 248.843 234.003C251.806 233.789 270.443 232.429 270.783 232.088C271.152 231.718 270.506 225.472 270.276 225.01C270.045 224.547 269.043 223.914 269.043 223.914C269.043 223.914 266.273 226.779 262.317 224.099Z" fill="white"/>
</mask>
<g mask="url(#mask12_192_599)">
<path d="M265.443 226.725C264.527 226.725 263.54 226.385 262.566 225.731C261.738 225.175 261.216 224.598 261.195 224.573L261.386 224.401C261.406 224.424 263.462 226.683 265.774 226.45C268.102 226.217 270.003 224.259 270.022 224.24L270.208 224.418C270.128 224.502 268.224 226.464 265.8 226.707C265.682 226.719 265.563 226.725 265.443 226.725Z" fill="#1C056D"/>
</g>
<path d="M259.884 225.318C259.884 225.318 258.119 222.384 255.851 222.108C253.582 221.832 252.571 223.586 253.255 224.764C253.938 225.942 259.376 225.669 259.376 225.669C259.376 225.669 254.167 224.905 253.973 224.306C253.778 223.706 254.393 222.604 255.104 222.604C255.815 222.604 259.884 225.318 259.884 225.318Z" fill="#1C056D"/>
<path d="M259.692 225.535C259.692 225.535 259.936 221.538 261.395 221.166C262.855 220.795 263.443 221.341 263.814 223.066C264.184 224.792 259.884 225.669 259.884 225.669C259.884 225.669 263.218 223.826 263.269 223.363C263.319 222.899 262.711 221.557 262.336 221.557C261.961 221.557 260.916 221.765 260.795 222.108C260.673 222.452 260.007 225.4 259.692 225.535Z" fill="#1C056D"/>
<path d="M268.163 229.506C268.343 228.741 267.87 227.975 267.108 227.795C266.345 227.614 265.581 228.088 265.401 228.852C265.22 229.617 265.693 230.383 266.456 230.564C267.218 230.744 267.983 230.271 268.163 229.506Z" fill="#1C056D"/>
<path d="M282.766 216.937L285.201 222.046C285.201 222.046 288.23 222.714 289.593 222.107C290.956 221.5 291.469 219.611 291.469 219.611L289.975 215.253L282.766 216.937Z" fill="#FE8E9C"/>
<path d="M285.169 221.98C285.169 221.98 274.863 232.414 274.841 233.205C274.825 233.771 275.055 234.905 275.186 235.503C275.231 235.707 275.448 235.819 275.639 235.737C278.372 234.569 295.555 227.208 295.766 226.775C295.995 226.304 293.359 220.608 292.991 220.246C292.622 219.884 291.469 219.611 291.469 219.611C291.469 219.611 289.779 223.224 285.169 221.98Z" fill="#1B3D9E"/>
<mask id="mask13_192_599" style="mask-type:luminance" maskUnits="userSpaceOnUse" x="274" y="219" width="22" height="17">
<path d="M285.169 221.98C285.169 221.98 274.863 232.414 274.841 233.205C274.825 233.771 275.055 234.905 275.186 235.503C275.231 235.707 275.448 235.819 275.639 235.737C278.372 234.569 295.555 227.208 295.766 226.775C295.995 226.304 293.359 220.608 292.991 220.246C292.622 219.884 291.469 219.611 291.469 219.611C291.469 219.611 289.779 223.224 285.169 221.98Z" fill="white"/>
</mask>
<g mask="url(#mask13_192_599)">
<path d="M277.418 229.79C277.418 229.79 279.394 229.856 280.844 232.266C280.844 232.266 295.564 225.506 295.702 225.595C295.841 225.683 296.427 226.759 296.137 226.941C295.846 227.123 276.256 236.133 275.655 236.122C275.055 236.112 274.95 236.202 274.817 235.813C274.683 235.424 274.224 233.134 274.447 232.758C274.671 232.382 277.418 229.79 277.418 229.79Z" fill="#1C056D"/>
</g>
<mask id="mask14_192_599" style="mask-type:luminance" maskUnits="userSpaceOnUse" x="274" y="219" width="22" height="17">
<path d="M285.169 221.98C285.169 221.98 274.863 232.414 274.841 233.205C274.825 233.771 275.055 234.905 275.186 235.503C275.231 235.707 275.448 235.819 275.639 235.737C278.372 234.569 295.555 227.208 295.766 226.775C295.995 226.304 293.359 220.608 292.991 220.246C292.622 219.884 291.469 219.611 291.469 219.611C291.469 219.611 289.779 223.224 285.169 221.98Z" fill="white"/>
</mask>
<g mask="url(#mask14_192_599)">
<path d="M287.558 223.667C287.046 223.667 286.501 223.592 285.933 223.441C284.97 223.185 284.29 222.809 284.261 222.793L284.386 222.568C284.413 222.583 287.092 224.048 289.201 223.076C291.327 222.096 292.49 219.625 292.501 219.601L292.734 219.709C292.686 219.814 291.522 222.29 289.309 223.31C288.793 223.548 288.202 223.667 287.558 223.667Z" fill="#1C056D"/>
</g>
<path d="M283.264 223.925C283.264 223.925 280.643 221.726 278.408 222.204C276.174 222.683 275.786 224.671 276.815 225.562C277.843 226.454 282.897 224.423 282.897 224.423C282.897 224.423 277.723 225.399 277.345 224.895C276.967 224.391 277.191 223.149 277.863 222.917C278.536 222.685 283.264 223.925 283.264 223.925Z" fill="#1C056D"/>
<path d="M283.152 224.192C283.152 224.192 282.087 220.333 283.346 219.506C284.606 218.679 285.34 219.003 286.249 220.515C287.159 222.026 283.378 224.257 283.378 224.257C283.378 224.257 285.932 221.427 285.83 220.972C285.728 220.518 284.717 219.447 284.362 219.569C284.008 219.692 283.087 220.228 283.084 220.593C283.08 220.957 283.407 223.962 283.152 224.192Z" fill="#1C056D"/>
<path d="M292.372 224.843C292.626 225.586 292.232 226.396 291.491 226.651C290.75 226.907 289.943 226.511 289.688 225.768C289.433 225.025 289.827 224.216 290.568 223.961C291.31 223.705 292.117 224.1 292.372 224.843Z" fill="#1C056D"/>
<path d="M141.47 239.923C175.644 239.923 203.348 237.273 203.348 234.004C203.348 230.735 175.644 228.084 141.47 228.084C107.295 228.084 79.5918 230.735 79.5918 234.004C79.5918 237.273 107.295 239.923 141.47 239.923Z" fill="#D4DFFF"/>
<path d="M221.046 65.0896C223.471 65.5552 228.992 66.7355 230.581 67.4122C231.222 67.6851 232.621 68.7008 235.65 71.9912C236.61 73.0343 239.266 76.2495 239.739 76.7976C240.322 77.4735 239.615 77.1498 237.546 79.0524C237.268 79.3077 236.84 79.5817 236.705 79.728C236.575 80.3606 236.099 82.4071 236.077 82.4988L235.883 83.3341L235.158 82.8784C234.622 82.5416 233.691 81.8236 232.612 80.9922C230.609 79.4488 227.582 77.1165 226.564 76.9212C226.132 76.8383 225.14 76.6817 223.992 76.5003C222.076 76.1979 219.692 75.8214 217.933 75.4837C217.211 75.345 216.667 75.2271 216.271 75.1232C215.713 74.9766 215.307 74.8434 215.173 74.4627C215.096 74.2427 215.14 74.0048 215.292 73.8261C215.694 73.3526 217.469 70.9654 217.687 70.4351C217.741 70.262 217.784 69.549 217.819 68.9755C217.861 68.2706 217.909 67.4718 218.004 66.785C218.137 65.8259 218.332 65.2966 218.656 65.0154C218.842 64.8539 219.074 64.7757 219.31 64.7955C219.609 64.8205 220.419 64.9692 221.046 65.0896Z" fill="#7DB9F9"/>
<path d="M235.483 82.3598C233.898 81.3637 228.391 76.6488 226.679 76.32C224.966 75.9912 215.396 74.6479 215.757 74.2229C216.118 73.7978 217.993 71.3103 218.256 70.6592C218.518 70.0082 218.347 65.3295 219.259 65.4057C220.171 65.4819 228.428 67.1607 230.343 67.9759C232.257 68.7911 238.559 76.0416 238.815 76.7773C239.07 77.513 236.215 79.0406 236.124 79.5174C236.033 79.9942 235.483 82.3598 235.483 82.3598Z" fill="#97C7FA"/>
<mask id="mask15_192_599" style="mask-type:luminance" maskUnits="userSpaceOnUse" x="215" y="65" width="24" height="18">
<path d="M235.483 82.3598C233.898 81.3637 228.391 76.6488 226.679 76.32C224.966 75.9912 215.396 74.6479 215.757 74.2229C216.118 73.7978 217.993 71.3103 218.256 70.6592C218.518 70.0082 218.347 65.3295 219.259 65.4057C220.171 65.4819 228.428 67.1607 230.343 67.9759C232.257 68.7911 238.559 76.0416 238.815 76.7773C239.07 77.513 236.215 79.0406 236.124 79.5174C236.033 79.9942 235.483 82.3598 235.483 82.3598Z" fill="white"/>
</mask>
<g mask="url(#mask15_192_599)">
<path opacity="0.24" d="M232.628 80.5599C232.628 80.5599 239.593 76.6275 239.485 76.4985C239.376 76.3695 237.625 73.3717 236.971 73.5087C236.317 73.6457 231.593 75.7668 231.593 75.7668C231.593 75.7668 235.696 72.8144 235.673 72.4029C235.649 71.9914 232.914 68.9821 232.313 69.0623C231.713 69.1425 228.364 71.3344 228.364 71.3344C228.364 71.3344 230.188 66.9911 229.256 66.6661C228.324 66.3412 225.356 65.7959 225.356 65.7959C225.356 65.7959 216.401 75.4159 216.637 75.5835C216.874 75.7511 221.289 76.6234 221.547 76.5506C221.805 76.4779 226.098 72.6344 226.098 72.6344C226.098 72.6344 223.681 76.8627 224.021 77.1235C224.362 77.3844 227.97 78.2728 228.079 78.3424C228.187 78.4122 233.094 76.715 233.094 76.715C233.094 76.715 230.437 79.0152 230.895 79.4209C231.354 79.8266 232.628 80.5599 232.628 80.5599Z" fill="#F6F9FF"/>
</g>
<path d="M225.549 72.2948C225.735 71.3166 226.909 70.72 228.17 70.9621C229.432 71.2042 231.207 72.7375 230.287 73.9528C229.687 74.7463 228.457 74.0732 227.196 73.8311C225.935 73.5889 225.362 73.2729 225.549 72.2948Z" fill="#7DB9F9"/>
</g>
<defs>
<clipPath id="clip0_192_599">
<rect width="386" height="258" fill="white"/>
</clipPath>
</defs>
</svg>
