<svg width="50" height="50" viewBox="0 0 50 50" fill="none" xmlns="http://www.w3.org/2000/svg">
<circle cx="25" cy="25" r="25" fill="#EC1F27"/>
<path d="M32.7771 15.221C30.7001 13.1439 27.9384 12 25.001 12C22.0636 12 19.3019 13.1439 17.2249 15.221C15.1478 17.2981 14.0039 20.0597 14.0039 22.9971C14.0039 28.9393 19.6225 33.8818 22.641 36.5371C23.0604 36.906 23.4227 37.2247 23.7113 37.4943C24.0729 37.832 24.537 38.0009 25.001 38.0009C25.4651 38.0009 25.9291 37.832 26.2907 37.4943C26.5793 37.2247 26.9416 36.906 27.361 36.5371C30.3795 33.8817 35.9981 28.9393 35.9981 22.9971C35.998 20.0597 34.8542 17.2981 32.7771 15.221ZM26.355 35.3935C25.9263 35.7706 25.5562 36.0963 25.251 36.3813C25.1108 36.5122 24.8912 36.5122 24.7509 36.3813C24.4458 36.0961 24.0755 35.7705 23.6469 35.3935C20.8091 32.8972 15.5269 28.2506 15.5269 22.9971C15.5269 17.7731 19.7769 13.5231 25.0009 13.5231C30.2249 13.5231 34.4749 17.7731 34.4749 22.9971C34.4749 28.2506 29.1928 32.8972 26.355 35.3935Z" fill="white"/>
<path d="M25.0006 17.7349C22.3283 17.7349 20.1543 19.9088 20.1543 22.5811C20.1543 25.2534 22.3283 27.4274 25.0006 27.4274C27.6729 27.4274 29.8468 25.2534 29.8468 22.5811C29.8468 19.9088 27.6729 17.7349 25.0006 17.7349ZM25.0006 25.9042C23.1682 25.9042 21.6774 24.4134 21.6774 22.5811C21.6774 20.7487 23.1682 19.2579 25.0006 19.2579C26.833 19.2579 28.3237 20.7487 28.3237 22.5811C28.3237 24.4134 26.833 25.9042 25.0006 25.9042Z" fill="white"/>
</svg>
