<svg width="50" height="50" viewBox="0 0 50 50" fill="none" xmlns="http://www.w3.org/2000/svg">
<g clip-path="url(#clip0_208_1995)">
<path d="M48.3322 31.6661H41.2647C39.9806 26.3902 36.9046 21.7237 32.5622 18.4636C32.8569 18.1824 33.078 17.8331 33.2061 17.4465C33.3342 17.0598 33.3653 16.6476 33.2968 16.246C33.2282 15.8445 33.0621 15.466 32.8129 15.1437C32.5638 14.8214 32.2393 14.5653 31.868 14.3978L34.0347 6.74696C34.1768 6.25175 34.202 5.73031 34.1084 5.22369C34.0148 4.71707 33.8049 4.23909 33.4952 3.82737C33.1855 3.41564 32.7845 3.08142 32.3237 2.85099C31.8629 2.62057 31.3549 2.50023 30.8397 2.49946H29.3322C28.8938 1.73786 28.2624 1.10525 27.5016 0.665375C26.7409 0.225501 25.8776 -0.00610352 24.9988 -0.00610352C24.1201 -0.00610352 23.2568 0.225501 22.4961 0.665375C21.7353 1.10525 21.1039 1.73786 20.6655 2.49946H19.1572C18.6425 2.5005 18.1351 2.62088 17.6749 2.85113C17.2146 3.08138 16.814 3.41523 16.5045 3.82644C16.1951 4.23766 15.9852 4.71503 15.8914 5.22106C15.7976 5.72708 15.8224 6.24797 15.9639 6.74279L18.1305 14.3978C17.759 14.5654 17.4344 14.8217 17.1852 15.1442C16.936 15.4666 16.7699 15.8454 16.7015 16.2472C16.6331 16.649 16.6645 17.0614 16.7929 17.4482C16.9214 17.8349 17.1429 18.1842 17.438 18.4653C13.1059 21.735 10.0317 26.3965 8.73218 31.6661H2.49885C2.01533 31.664 1.54165 31.8027 1.13569 32.0654C0.729721 32.328 0.409043 32.7032 0.212829 33.1452C0.0166145 33.5871 -0.0466408 34.0766 0.0307903 34.5539C0.108221 35.0312 0.322987 35.4756 0.648849 35.8328C0.230829 36.2872 -0.00118174 36.882 -0.00118174 37.4995C-0.00118174 38.1169 0.230829 38.7117 0.648849 39.1661C0.403179 39.4343 0.219593 39.7532 0.111142 40.1003C0.0026905 40.4474 -0.0279631 40.8142 0.0213601 41.1745C0.0706833 41.5348 0.198772 41.8798 0.396521 42.185C0.59427 42.4902 0.856823 42.7481 1.16552 42.9403C0.946852 43.3118 0.831542 43.735 0.831542 44.1661C0.831542 44.5972 0.946852 45.0204 1.16552 45.392C0.706831 45.6802 0.354424 46.1099 0.161544 46.6161C-0.031336 47.1224 -0.0542088 47.6776 0.0963815 48.198C0.246972 48.7184 0.562843 49.1756 0.996266 49.5006C1.42969 49.8256 1.95712 50.0007 2.49885 49.9995H15.8322C16.2922 49.9979 16.7428 49.8691 17.1342 49.6273C17.5256 49.3855 17.8424 49.0402 18.0497 48.6295C20.2552 49.5327 22.6155 49.998 24.9988 49.9995H48.3322C48.7742 49.9995 49.1981 49.8239 49.5107 49.5113C49.8233 49.1987 49.9988 48.7748 49.9988 48.3328V33.3328C49.9988 32.8908 49.8233 32.4668 49.5107 32.1543C49.1981 31.8417 48.7742 31.6661 48.3322 31.6661ZM48.3322 35.7145C47.7591 35.5654 47.2362 35.2661 46.8176 34.8474C46.3989 34.4287 46.0995 33.9058 45.9505 33.3328H48.3322V35.7145ZM19.1655 17.4995C18.9445 17.4995 18.7325 17.4117 18.5763 17.2554C18.42 17.0991 18.3322 16.8871 18.3322 16.6661C18.3322 16.4451 18.42 16.2331 18.5763 16.0769C18.7325 15.9206 18.9445 15.8328 19.1655 15.8328H30.8322C31.0532 15.8328 31.2652 15.9206 31.4214 16.0769C31.5777 16.2331 31.6655 16.4451 31.6655 16.6661C31.6655 16.8871 31.5777 17.0991 31.4214 17.2554C31.2652 17.4117 31.0532 17.4995 30.8322 17.4995H19.1655ZM17.8372 4.82779C17.9901 4.62214 18.1891 4.45518 18.4182 4.34028C18.6473 4.22538 18.9001 4.16573 19.1563 4.16612H20.073C20.0252 4.44136 20.0004 4.7201 19.9988 4.99946V8.33279C19.9988 8.5538 20.0866 8.76577 20.2429 8.92205C20.3992 9.07833 20.6112 9.16612 20.8322 9.16612C21.0532 9.16612 21.2652 9.07833 21.4214 8.92205C21.5777 8.76577 21.6655 8.5538 21.6655 8.33279V4.99946C21.6641 4.54062 21.7583 4.08652 21.9422 3.66613C22.2014 3.07122 22.6286 2.56492 23.1715 2.20933C23.7143 1.85374 24.3491 1.66433 24.998 1.66433C25.6469 1.66433 26.2817 1.85374 26.8246 2.20933C27.3674 2.56492 27.7946 3.07122 28.0538 3.66613C28.2383 4.08639 28.3331 4.5405 28.3322 4.99946V8.33279C28.3322 8.5538 28.42 8.76577 28.5763 8.92205C28.7325 9.07833 28.9445 9.16612 29.1655 9.16612C29.3865 9.16612 29.5985 9.07833 29.7548 8.92205C29.9111 8.76577 29.9988 8.5538 29.9988 8.33279V4.99946C29.997 4.72008 29.972 4.44134 29.9238 4.16612H30.8405C31.0973 4.16811 31.3501 4.22939 31.5793 4.3452C31.8085 4.46101 32.0078 4.62821 32.1617 4.83375C32.3156 5.03929 32.42 5.27761 32.4666 5.53012C32.5132 5.78264 32.5009 6.04251 32.4305 6.28946L30.2022 14.1661H19.7955L17.5663 6.28529C17.4945 6.03808 17.4815 5.77747 17.5286 5.52436C17.5756 5.27125 17.6813 5.03268 17.8372 4.82779ZM2.49885 33.3328H15.8322C16.0532 33.3328 16.2652 33.4206 16.4214 33.5769C16.5777 33.7332 16.6655 33.9451 16.6655 34.1661C16.6655 34.3871 16.5777 34.5991 16.4214 34.7554C16.2652 34.9117 16.0532 34.9995 15.8322 34.9995H2.49885C2.27784 34.9995 2.06587 34.9117 1.90959 34.7554C1.75331 34.5991 1.66552 34.3871 1.66552 34.1661C1.66552 33.9451 1.75331 33.7332 1.90959 33.5769C2.06587 33.4206 2.27784 33.3328 2.49885 33.3328ZM2.49885 44.1661C2.49885 43.9451 2.58665 43.7332 2.74293 43.5769C2.89921 43.4206 3.11117 43.3328 3.33218 43.3328H16.6655C16.8865 43.3328 17.0985 43.4206 17.2548 43.5769C17.4111 43.7332 17.4988 43.9451 17.4988 44.1661C17.4988 44.3871 17.4111 44.5991 17.2548 44.7554C17.0985 44.9117 16.8865 44.9995 16.6655 44.9995H3.33218C3.11117 44.9995 2.89921 44.9117 2.74293 44.7554C2.58665 44.5991 2.49885 44.3871 2.49885 44.1661ZM2.49885 41.6661C2.27784 41.6661 2.06587 41.5783 1.90959 41.422C1.75331 41.2658 1.66552 41.0538 1.66552 40.8328C1.66552 40.6118 1.75331 40.3998 1.90959 40.2435C2.06587 40.0873 2.27784 39.9995 2.49885 39.9995H15.8322C16.0532 39.9995 16.2652 40.0873 16.4214 40.2435C16.5777 40.3998 16.6655 40.6118 16.6655 40.8328C16.6655 41.0538 16.5777 41.2658 16.4214 41.422C16.2652 41.5783 16.0532 41.6661 15.8322 41.6661H2.49885ZM1.66552 37.4995C1.66552 37.2784 1.75331 37.0665 1.90959 36.9102C2.06587 36.7539 2.27784 36.6661 2.49885 36.6661H15.8322C16.0532 36.6661 16.2652 36.7539 16.4214 36.9102C16.5777 37.0665 16.6655 37.2784 16.6655 37.4995C16.6655 37.7205 16.5777 37.9324 16.4214 38.0887C16.2652 38.245 16.0532 38.3328 15.8322 38.3328H2.49885C2.27784 38.3328 2.06587 38.245 1.90959 38.0887C1.75331 37.9324 1.66552 37.7205 1.66552 37.4995ZM15.8322 48.3328H2.49885C2.27784 48.3328 2.06587 48.245 1.90959 48.0887C1.75331 47.9324 1.66552 47.7205 1.66552 47.4995C1.66552 47.2784 1.75331 47.0665 1.90959 46.9102C2.06587 46.7539 2.27784 46.6661 2.49885 46.6661H15.8322C16.0532 46.6661 16.2652 46.7539 16.4214 46.9102C16.5777 47.0665 16.6655 47.2784 16.6655 47.4995C16.6655 47.7205 16.5777 47.9324 16.4214 48.0887C16.2652 48.245 16.0532 48.3328 15.8322 48.3328ZM18.2488 46.8961C18.1939 46.6783 18.1098 46.469 17.9988 46.2736C18.3562 46.0501 18.6508 45.7394 18.855 45.3708C19.0593 45.0021 19.1664 44.5876 19.1664 44.1661C19.1664 43.7447 19.0593 43.3301 18.855 42.9615C18.6508 42.5928 18.3562 42.2821 17.9988 42.0586C18.2633 41.6063 18.3753 41.0809 18.3182 40.5601C18.2612 40.0392 18.0382 39.5505 17.6822 39.1661C18.1002 38.7117 18.3322 38.1169 18.3322 37.4995C18.3322 36.882 18.1002 36.2872 17.6822 35.8328C18.008 35.4756 18.2228 35.0312 18.3002 34.5539C18.3777 34.0766 18.3144 33.5871 18.1182 33.1452C17.922 32.7032 17.6013 32.328 17.1953 32.0654C16.7894 31.8027 16.3157 31.664 15.8322 31.6661H10.438C11.6697 26.7595 15.3722 21.5603 19.403 19.1661H30.5938C35.7088 22.1978 39.9988 29.3911 39.9988 34.9995C39.9988 42.3511 33.2697 48.3328 24.9988 48.3328C22.6732 48.3304 20.3739 47.841 18.2488 46.8961ZM41.6655 34.9995C41.6605 34.4421 41.6223 33.8856 41.5513 33.3328H44.2405C44.4151 34.3544 44.9025 35.2967 45.6354 36.0296C46.3683 36.7625 47.3105 37.2499 48.3322 37.4245V44.2411C47.3105 44.4157 46.3683 44.9031 45.6354 45.636C44.9025 46.3689 44.4151 47.3111 44.2405 48.3328H32.5997C37.9747 45.8403 41.6655 40.8053 41.6655 34.9995ZM45.9505 48.3328C46.0995 47.7597 46.3989 47.2369 46.8176 46.8182C47.2362 46.3995 47.7591 46.1002 48.3322 45.9511V48.3328H45.9505Z" fill="#0872BA"/>
<path d="M44.999 43.333C45.4935 43.333 45.9768 43.1864 46.3879 42.9117C46.7991 42.637 47.1195 42.2465 47.3087 41.7897C47.4979 41.3329 47.5475 40.8302 47.451 40.3453C47.3545 39.8603 47.1164 39.4149 46.7668 39.0652C46.4172 38.7156 45.9717 38.4775 45.4867 38.381C45.0018 38.2846 44.4991 38.3341 44.0423 38.5233C43.5855 38.7125 43.1951 39.033 42.9204 39.4441C42.6456 39.8552 42.499 40.3386 42.499 40.833C42.499 41.4961 42.7624 42.1319 43.2313 42.6008C43.7001 43.0696 44.336 43.333 44.999 43.333ZM44.999 39.9997C45.1638 39.9997 45.325 40.0485 45.462 40.1401C45.599 40.2317 45.7058 40.3618 45.7689 40.5141C45.832 40.6664 45.8485 40.8339 45.8163 40.9956C45.7842 41.1572 45.7048 41.3057 45.5883 41.4223C45.4717 41.5388 45.3233 41.6182 45.1616 41.6503C44.9999 41.6825 44.8324 41.666 44.6801 41.6029C44.5278 41.5398 44.3977 41.433 44.3061 41.296C44.2146 41.1589 44.1657 40.9978 44.1657 40.833C44.1657 40.612 44.2535 40.4 44.4098 40.2438C44.566 40.0875 44.778 39.9997 44.999 39.9997Z" fill="#0872BA"/>
<path d="M27.499 30C27.499 30.221 27.5868 30.433 27.743 30.5893C27.8993 30.7455 28.1113 30.8333 28.3323 30.8333C28.5533 30.8333 28.7653 30.7455 28.9216 30.5893C29.0778 30.433 29.1656 30.221 29.1656 30C29.1644 29.0398 28.8322 28.1094 28.225 27.3656C27.6178 26.6218 26.7728 26.1101 25.8323 25.9167V25.8333C25.8323 25.6123 25.7445 25.4004 25.5882 25.2441C25.4319 25.0878 25.22 25 24.999 25C24.778 25 24.566 25.0878 24.4097 25.2441C24.2534 25.4004 24.1656 25.6123 24.1656 25.8333V25.9167C23.2237 26.1079 22.3769 26.6189 21.7687 27.3631C21.1604 28.1073 20.8281 29.0389 20.8281 30C20.8281 30.9611 21.1604 31.8927 21.7687 32.6369C22.3769 33.3811 23.2237 33.8921 24.1656 34.0833V39.0142C23.6797 38.8424 23.2588 38.5246 22.9605 38.1044C22.6621 37.6842 22.5009 37.182 22.499 36.6667C22.499 36.4457 22.4112 36.2337 22.2549 36.0774C22.0986 35.9211 21.8866 35.8333 21.6656 35.8333C21.4446 35.8333 21.2327 35.9211 21.0764 36.0774C20.9201 36.2337 20.8323 36.4457 20.8323 36.6667C20.8335 37.6268 21.1657 38.5572 21.7729 39.301C22.3801 40.0449 23.2251 40.5566 24.1656 40.75V40.8333C24.1656 41.0543 24.2534 41.2663 24.4097 41.4226C24.566 41.5789 24.778 41.6667 24.999 41.6667C25.22 41.6667 25.4319 41.5789 25.5882 41.4226C25.7445 41.2663 25.8323 41.0543 25.8323 40.8333V40.75C26.7742 40.5587 27.621 40.0477 28.2293 39.3035C28.8375 38.5594 29.1698 37.6278 29.1698 36.6667C29.1698 35.7055 28.8375 34.774 28.2293 34.0298C27.621 33.2856 26.7742 32.7746 25.8323 32.5833V27.6533C26.3181 27.8251 26.7389 28.1427 27.0372 28.5627C27.3356 28.9828 27.4968 29.4848 27.499 30ZM22.499 30C22.5011 29.4848 22.6624 28.9828 22.9607 28.5627C23.259 28.1427 23.6799 27.8251 24.1656 27.6533V32.3467C23.6799 32.1749 23.259 31.8573 22.9607 31.4373C22.6624 31.0172 22.5011 30.5152 22.499 30ZM27.499 36.6667C27.4968 37.1819 27.3356 37.6839 27.0372 38.1039C26.7389 38.524 26.3181 38.8416 25.8323 39.0133V34.32C26.3181 34.4917 26.7389 34.8094 27.0372 35.2294C27.3356 35.6495 27.4968 36.1514 27.499 36.6667Z" fill="#0872BA"/>
</g>
<defs>
<clipPath id="clip0_208_1995">
<rect width="50" height="50" fill="white"/>
</clipPath>
</defs>
</svg>
