<svg width="54" height="54" viewBox="0 0 54 54" fill="none" xmlns="http://www.w3.org/2000/svg">
<path d="M8.4375 47.5H15.1875C15.5687 47.5 15.9344 47.6515 16.204 47.921C16.4735 48.1906 16.625 48.5563 16.625 48.9375C16.625 49.3187 16.4735 49.6844 16.204 49.954C15.9344 50.2235 15.5687 50.375 15.1875 50.375H8.4375C7.16115 50.375 5.93707 49.868 5.03455 48.9655C4.13203 48.0629 3.625 46.8389 3.625 45.5625V38.8125C3.625 38.4313 3.77645 38.0656 4.04603 37.796C4.31562 37.5264 4.68125 37.375 5.0625 37.375C5.44375 37.375 5.80938 37.5264 6.07897 37.796C6.34855 38.0656 6.5 38.4313 6.5 38.8125V45.5625C6.5 46.0764 6.70413 46.5692 7.06748 46.9325C7.43083 47.2959 7.92364 47.5 8.4375 47.5Z" fill="#2EBFAF" stroke="#E4FFFC" stroke-width="0.5"/>
<path d="M47.921 37.796C48.1906 37.5264 48.5563 37.375 48.9375 37.375C49.3187 37.375 49.6844 37.5264 49.954 37.796C50.2235 38.0656 50.375 38.4313 50.375 38.8125V45.5625C50.375 46.8389 49.868 48.0629 48.9655 48.9655C48.0629 49.868 46.8389 50.375 45.5625 50.375H38.8125C38.4313 50.375 38.0656 50.2235 37.796 49.954C37.5264 49.6844 37.375 49.3187 37.375 48.9375C37.375 48.5563 37.5264 48.1906 37.796 47.921C38.0656 47.6515 38.4313 47.5 38.8125 47.5H45.5625C46.0764 47.5 46.5692 47.2959 46.9325 46.9325C47.2959 46.5692 47.5 46.0764 47.5 45.5625V38.8125C47.5 38.4313 47.6515 38.0656 47.921 37.796Z" fill="#2EBFAF" stroke="#E4FFFC" stroke-width="0.5"/>
<path d="M6.07897 16.204C5.80938 16.4735 5.44375 16.625 5.0625 16.625C4.68125 16.625 4.31562 16.4735 4.04603 16.204C3.77645 15.9344 3.625 15.5687 3.625 15.1875V8.4375C3.625 7.16115 4.13203 5.93707 5.03455 5.03455C5.93707 4.13203 7.16115 3.625 8.4375 3.625H15.1875C15.5687 3.625 15.9344 3.77645 16.204 4.04603C16.4735 4.31562 16.625 4.68125 16.625 5.0625C16.625 5.44375 16.4735 5.80938 16.204 6.07897C15.9344 6.34855 15.5687 6.5 15.1875 6.5H8.4375C7.92364 6.5 7.43083 6.70413 7.06748 7.06748C6.70413 7.43083 6.5 7.92364 6.5 8.4375V15.1875C6.5 15.5687 6.34855 15.9344 6.07897 16.204Z" fill="#2EBFAF" stroke="#E4FFFC" stroke-width="0.5"/>
<path d="M38.8125 3.625H45.5625C46.8389 3.625 48.0629 4.13203 48.9655 5.03455C49.868 5.93707 50.375 7.16115 50.375 8.4375V15.1875C50.375 15.5687 50.2235 15.9344 49.954 16.204C49.6844 16.4735 49.3187 16.625 48.9375 16.625C48.5563 16.625 48.1906 16.4735 47.921 16.204C47.6515 15.9344 47.5 15.5687 47.5 15.1875V8.4375C47.5 7.92364 47.2959 7.43083 46.9325 7.06748C46.5692 6.70413 46.0764 6.5 45.5625 6.5H38.8125C38.4313 6.5 38.0656 6.34855 37.796 6.07897C37.5264 5.80938 37.375 5.44375 37.375 5.0625C37.375 4.68125 37.5264 4.31562 37.796 4.04603C38.0656 3.77645 38.4313 3.625 38.8125 3.625Z" fill="#2EBFAF" stroke="#E4FFFC" stroke-width="0.5"/>
<path d="M13.25 40.5V40.75H13.5H18.5625H18.8125V40.5V35.4375V35.1875H18.5625H13.5H13.25V35.4375V40.5ZM13.5 32.3125H18.5625C19.3913 32.3125 20.1862 32.6417 20.7722 33.2278C21.3583 33.8138 21.6875 34.6087 21.6875 35.4375V40.5C21.6875 41.3288 21.3583 42.1237 20.7722 42.7097C20.1862 43.2958 19.3913 43.625 18.5625 43.625H13.5C12.6712 43.625 11.8763 43.2958 11.2903 42.7097C10.7042 42.1237 10.375 41.3288 10.375 40.5V35.4375C10.375 34.6087 10.7042 33.8138 11.2903 33.2278C11.8763 32.6417 12.6712 32.3125 13.5 32.3125Z" fill="#2EBFAF" stroke="#E4FFFC" stroke-width="0.5"/>
<path d="M35.4375 35.1875H35.1875V35.4375V40.5V40.75H35.4375H40.5H40.75V40.5V35.4375V35.1875H40.5H35.4375ZM43.625 35.4375V40.5C43.625 41.3288 43.2958 42.1237 42.7097 42.7097C42.1237 43.2958 41.3288 43.625 40.5 43.625H35.4375C34.6087 43.625 33.8138 43.2958 33.2278 42.7097C32.6417 42.1237 32.3125 41.3288 32.3125 40.5V35.4375C32.3125 34.6087 32.6417 33.8138 33.2278 33.2278C33.8138 32.6417 34.6087 32.3125 35.4375 32.3125H40.5C41.3288 32.3125 42.1237 32.6417 42.7097 33.2278C43.2958 33.8138 43.625 34.6087 43.625 35.4375Z" fill="#2EBFAF" stroke="#E4FFFC" stroke-width="0.5"/>
<path d="M25.5625 28.6875V28.4375H25.3125H11.8125C11.4313 28.4375 11.0656 28.2861 10.796 28.0165C10.5265 27.7469 10.375 27.3812 10.375 27C10.375 26.6188 10.5265 26.2531 10.796 25.9835C11.0656 25.714 11.4313 25.5625 11.8125 25.5625H25.3125C26.1413 25.5625 26.9362 25.8917 27.5222 26.4778C28.1083 27.0638 28.4375 27.8587 28.4375 28.6875V42.1875C28.4375 42.5688 28.2861 42.9344 28.0165 43.204C27.7469 43.4736 27.3813 43.625 27 43.625C26.6187 43.625 26.2531 43.4736 25.9835 43.204C25.714 42.9344 25.5625 42.5687 25.5625 42.1875V28.6875Z" fill="#2EBFAF" stroke="#E4FFFC" stroke-width="0.5"/>
<path d="M13.5 13.25H13.25V13.5V20.25C13.25 20.6312 13.0985 20.9969 12.829 21.2665C12.5594 21.536 12.1937 21.6875 11.8125 21.6875C11.4313 21.6875 11.0656 21.536 10.796 21.2665C10.5265 20.9969 10.375 20.6312 10.375 20.25V13.5C10.375 12.6712 10.7042 11.8763 11.2903 11.2903C11.8763 10.7042 12.6712 10.375 13.5 10.375H20.25C20.6312 10.375 20.9969 10.5265 21.2665 10.796C21.536 11.0656 21.6875 11.4313 21.6875 11.8125C21.6875 12.1937 21.536 12.5594 21.2665 12.829C20.9969 13.0985 20.6312 13.25 20.25 13.25H13.5Z" fill="#2EBFAF" stroke="#E4FFFC" stroke-width="0.5"/>
<path d="M35.4375 13.25H35.1875V13.5V18.5625V18.8125H35.4375H40.5H40.75V18.5625V13.5V13.25H40.5H35.4375ZM40.5 21.6875H35.4375C34.6087 21.6875 33.8138 21.3583 33.2278 20.7722C32.6417 20.1862 32.3125 19.3913 32.3125 18.5625V13.5C32.3125 12.6712 32.6417 11.8763 33.2278 11.2903C33.8138 10.7042 34.6087 10.375 35.4375 10.375H40.5C41.3288 10.375 42.1237 10.7042 42.7097 11.2903C43.2958 11.8763 43.625 12.6712 43.625 13.5V18.5625C43.625 19.3913 43.2958 20.1862 42.7097 20.7722C42.1237 21.3583 41.3288 21.6875 40.5 21.6875Z" fill="#2EBFAF" stroke="#E4FFFC" stroke-width="0.5"/>
<path d="M35.4375 28.4375H33.75C33.3688 28.4375 33.0031 28.2861 32.7335 28.0165C32.4639 27.7469 32.3125 27.3812 32.3125 27C32.3125 26.6188 32.4639 26.2531 32.7335 25.9835C33.0031 25.714 33.3688 25.5625 33.75 25.5625H35.4375C35.8187 25.5625 36.1844 25.714 36.454 25.9835C36.7236 26.2531 36.875 26.6188 36.875 27C36.875 27.3812 36.7236 27.7469 36.454 28.0165C36.1844 28.2861 35.8187 28.4375 35.4375 28.4375Z" fill="#2EBFAF" stroke="#E4FFFC" stroke-width="0.5"/>
<path d="M39.4835 25.9835C39.7531 25.714 40.1188 25.5625 40.5 25.5625H42.1875C42.5687 25.5625 42.9344 25.714 43.204 25.9835C43.4736 26.2531 43.625 26.6188 43.625 27C43.625 27.3812 43.4736 27.7469 43.204 28.0165C42.9344 28.2861 42.5687 28.4375 42.1875 28.4375H40.5C40.1188 28.4375 39.7531 28.2861 39.4835 28.0165C39.2139 27.7469 39.0625 27.3812 39.0625 27C39.0625 26.6188 39.2139 26.2531 39.4835 25.9835Z" fill="#2EBFAF" stroke="#E4FFFC" stroke-width="0.5"/>
<path d="M18.5625 18.8125H27C27.3812 18.8125 27.7469 18.964 28.0165 19.2335C28.286 19.5031 28.4375 19.8688 28.4375 20.25C28.4375 20.6312 28.286 20.9969 28.0165 21.2665C27.7469 21.536 27.3812 21.6875 27 21.6875H18.5625C18.1813 21.6875 17.8156 21.536 17.546 21.2665C17.2765 20.9969 17.125 20.6312 17.125 20.25C17.125 19.8688 17.2765 19.5031 17.546 19.2335C17.8156 18.964 18.1813 18.8125 18.5625 18.8125Z" fill="#2EBFAF" stroke="#E4FFFC" stroke-width="0.5"/>
<path d="M25.9835 10.796C26.2531 10.5265 26.6188 10.375 27 10.375C27.3812 10.375 27.7469 10.5265 28.0165 10.796C28.2861 11.0656 28.4375 11.4313 28.4375 11.8125V13.5C28.4375 13.8812 28.2861 14.2469 28.0165 14.5165C27.7469 14.786 27.3812 14.9375 27 14.9375C26.6188 14.9375 26.2531 14.786 25.9835 14.5165C25.714 14.2469 25.5625 13.8812 25.5625 13.5V11.8125C25.5625 11.4313 25.714 11.0656 25.9835 10.796Z" fill="#2EBFAF" stroke="#E4FFFC" stroke-width="0.5"/>
</svg>
