<svg width="51" height="51" viewBox="0 0 51 51" fill="none" xmlns="http://www.w3.org/2000/svg">
<g clip-path="url(#clip0_208_1999)">
<path d="M14.9157 22.6752C14.9157 21.9151 14.2973 21.2966 13.537 21.2966H11.6101C10.8499 21.2966 10.2314 21.9151 10.2314 22.6752V24.2519C10.2314 25.0121 10.8499 25.6306 11.6101 25.6306H13.537C14.2973 25.6306 14.9157 25.0121 14.9157 24.2519V22.6752ZM13.4212 24.136H11.726V22.7911H13.4212V24.136Z" fill="#EC1F27"/>
<path d="M8.46447 22.6752C8.46447 21.9151 7.84602 21.2966 7.08578 21.2966H5.15897C4.39873 21.2966 3.78027 21.9151 3.78027 22.6752V24.2519C3.78027 25.0121 4.39873 25.6306 5.15897 25.6306H7.08578C7.84602 25.6306 8.46447 25.0121 8.46447 24.2519V22.6752ZM6.9699 24.136H5.27485V22.7911H6.9699V24.136Z" fill="#EC1F27"/>
<path d="M14.9157 28.3501C14.9157 27.5899 14.2973 26.9714 13.537 26.9714H11.6101C10.8499 26.9714 10.2314 27.5899 10.2314 28.3501V29.9268C10.2314 30.687 10.8499 31.3054 11.6101 31.3054H13.537C14.2973 31.3054 14.9157 30.687 14.9157 29.9268V28.3501ZM13.4212 29.8109H11.726V28.466H13.4212V29.8109Z" fill="#EC1F27"/>
<path d="M8.46447 28.3501C8.46447 27.5899 7.84602 26.9714 7.08578 26.9714H5.15897C4.39873 26.9714 3.78027 27.5899 3.78027 28.3501V29.9268C3.78027 30.687 4.39873 31.3054 5.15897 31.3054H7.08578C7.84602 31.3054 8.46447 30.687 8.46447 29.9268V28.3501ZM6.9699 29.8109H5.27485V28.466H6.9699V29.8109Z" fill="#EC1F27"/>
<path d="M13.537 32.6467H11.6101C10.8499 32.6467 10.2314 33.2652 10.2314 34.0254V35.6021C10.2314 36.3623 10.8499 36.9808 11.6101 36.9808H13.537C14.2973 36.9808 14.9157 36.3623 14.9157 35.6021V34.0254C14.9156 33.2652 14.2972 32.6467 13.537 32.6467ZM13.4211 35.4861H11.7259V34.1412H13.4211V35.4861Z" fill="#EC1F27"/>
<path d="M7.08578 32.6467H5.15897C4.39873 32.6467 3.78027 33.2652 3.78027 34.0254V35.6021C3.78027 36.3623 4.39873 36.9808 5.15897 36.9808H7.08578C7.84602 36.9808 8.46447 36.3623 8.46447 35.6021V34.0254C8.46447 33.2652 7.84602 32.6467 7.08578 32.6467ZM6.9699 35.4861H5.27485V34.1412H6.9699V35.4861Z" fill="#EC1F27"/>
<path d="M18.0603 36.9806H19.9871C20.7474 36.9806 21.3658 36.3621 21.3658 35.6019V34.0252C21.3658 33.2649 20.7474 32.6465 19.9871 32.6465H18.0603C17.3001 32.6465 16.6816 33.2649 16.6816 34.0252V35.6019C16.6816 36.3621 17.3001 36.9806 18.0603 36.9806ZM18.1762 34.1412H19.8713V35.4861H18.1762V34.1412Z" fill="#EC1F27"/>
<path d="M50.1085 44.4924L48.9101 42.3969L49.6816 34.7499C50.0725 30.8755 48.5281 27.0644 45.5503 24.5551L39.2646 19.2585L32.7074 7.79312C32.2917 7.06625 31.6177 6.54475 30.8099 6.32475C30.0019 6.10484 29.1566 6.21245 28.4298 6.62824L24.3555 8.95839V4.19238C24.3555 1.88067 22.4748 0 20.1632 0H4.9834C2.67169 0 0.791016 1.88067 0.791016 4.19238V35.9675C0.791016 38.1346 2.44382 39.9229 4.55505 40.1381V48.7558C4.55505 49.1033 4.73032 49.4217 5.02395 49.6076C5.31769 49.7935 5.68057 49.8156 5.99453 49.6669L7.63109 48.8922L9.74392 49.8077C9.87146 49.8629 10.0079 49.8905 10.1444 49.8905C10.2861 49.8905 10.4277 49.8608 10.5595 49.8014L12.5787 48.8894L14.6809 49.8054C14.9479 49.9218 15.2521 49.9172 15.5154 49.7925L17.4104 48.8947L19.1708 49.6848C19.4841 49.8253 19.8431 49.7979 20.1313 49.6112C20.4195 49.4246 20.5916 49.1084 20.5916 48.765V40.1381C22.7028 39.9229 24.3556 38.1346 24.3556 35.9675V33.4903L25.2769 35.1012C25.3767 35.2756 25.4917 35.4379 25.6194 35.5872L25.2992 37.1892C25.1624 37.8735 25.3004 38.57 25.6875 39.1506C26.0745 39.7312 26.6646 40.1263 27.3488 40.263C27.5212 40.2974 27.6944 40.3145 27.8662 40.3145C28.3767 40.3145 28.8759 40.1643 29.3102 39.8748C29.3178 39.8697 29.325 39.8643 29.3324 39.8592C29.7028 40.4267 30.2913 40.8512 31.0067 40.9942C31.1766 41.0282 31.3471 41.0446 31.516 41.0446C31.9493 41.0446 32.3718 40.9352 32.7472 40.7346C33.6904 43.5195 35.3638 46.0417 37.6161 47.9889L38.1414 48.4432L39.3883 50.6235C39.5263 50.8647 39.7784 50.9999 40.0377 50.9999C40.1635 50.9999 40.291 50.9681 40.408 50.9012C40.7662 50.6963 40.8906 50.2398 40.6857 49.8815L39.3755 47.5904C39.3335 47.517 39.2795 47.4514 39.2156 47.3961L38.5937 46.8584C35.4737 44.1608 33.574 40.2508 33.3817 36.1308L33.1216 30.5593C33.1051 30.2062 33.0037 29.8572 32.828 29.5501L30.2742 25.0847C30.0863 24.7562 30.0376 24.3741 30.1371 24.009C30.2366 23.6438 30.4723 23.3392 30.8008 23.1514C31.1294 22.9635 31.5112 22.9145 31.8766 23.0143C32.2418 23.1137 32.5464 23.3494 32.7342 23.6779L34.1612 26.173C34.3662 26.5313 34.8227 26.6556 35.1808 26.4508C35.5391 26.2458 35.6634 25.7893 35.4586 25.4311L34.0317 22.936C33.6456 22.2609 33.0197 21.7766 32.2694 21.5722C31.519 21.3679 30.7339 21.468 30.0589 21.8541C28.6653 22.6511 28.18 24.4333 28.977 25.8269L31.5308 30.2922C31.5894 30.3947 31.6233 30.5112 31.6288 30.629L31.7529 33.2873L28.8126 34.9689C28.4323 35.1864 27.9901 35.2429 27.5673 35.1276C27.1446 35.0125 26.7919 34.7396 26.5744 34.3593L20.6964 24.0816C20.4914 23.7233 20.0348 23.5989 19.6767 23.8039C19.3185 24.0088 19.1941 24.4653 19.399 24.8236L20.7654 27.2128C20.5439 27.0609 20.2762 26.9716 19.9878 26.9716H18.061C17.3008 26.9716 16.6823 27.5901 16.6823 28.3503V29.927C16.6823 30.6871 17.3008 31.3056 18.061 31.3056H19.9878C20.7481 31.3056 21.3665 30.6871 21.3665 29.927V28.3503C21.3665 28.3183 21.3638 28.2869 21.3618 28.2555L22.8611 30.8771V35.9676C22.8611 37.4552 21.6509 38.6654 20.1634 38.6654H4.9834C3.4958 38.6654 2.28559 37.4552 2.28559 35.9676V4.19238C2.28559 2.70478 3.4958 1.49458 4.9834 1.49458H20.1632C21.6507 1.49458 22.8609 2.70478 22.8609 4.19238V9.81318L21.3663 10.668V6.85123C21.3663 6.18784 20.8266 5.6481 20.1632 5.6481H4.9834C4.31991 5.6481 3.78017 6.18784 3.78017 6.85133V10.0406C3.78017 10.4533 4.11475 10.7878 4.52745 10.7878C4.94016 10.7878 5.27474 10.4533 5.27474 10.0406V7.14268H19.8718V11.5227L16.5046 13.4485C15.1407 14.2285 14.585 15.8849 15.1396 17.3071H5.27474V13.2252C5.27474 12.8125 4.94016 12.4779 4.52745 12.4779C4.11475 12.4779 3.78017 12.8125 3.78017 13.2252V17.5984C3.78017 18.2619 4.31991 18.8017 4.9834 18.8017H15.9548L17.8178 22.0591C18.0228 22.4173 18.4792 22.5417 18.8375 22.3368C19.1958 22.132 19.3201 21.6754 19.1152 21.3171L16.6371 16.9843C16.188 16.1991 16.4615 15.195 17.2467 14.746L29.1719 7.92573C29.5522 7.70822 29.9944 7.65173 30.4172 7.76701C30.84 7.88209 31.1926 8.155 31.4101 8.53532L41.3472 25.9106C41.5647 26.2909 41.6211 26.7332 41.506 27.1559C41.3909 27.5787 41.1181 27.9312 40.7377 28.1487L37.9308 29.754L37.0395 28.1955C36.8345 27.8372 36.3779 27.7129 36.0198 27.9178C35.6616 28.1226 35.5372 28.5792 35.7421 28.9375L37.758 32.4624C37.896 32.7036 38.1481 32.8388 38.4074 32.8388C38.5332 32.8388 38.6607 32.807 38.7777 32.7401C39.1359 32.5352 39.2603 32.0787 39.0554 31.7204L38.6728 31.0514L41.4797 29.4461C42.2066 29.0304 42.7281 28.3565 42.9481 27.5486C43.1681 26.7407 43.0603 25.8954 42.6446 25.1686L41.4222 23.0313L44.5872 25.6982C47.1873 27.8893 48.5359 31.2171 48.1947 34.6L47.3992 42.4853C47.3835 42.6402 47.4167 42.7962 47.494 42.9314L48.8113 45.2347C48.9493 45.476 49.2014 45.6112 49.4607 45.6112C49.5865 45.6112 49.714 45.5794 49.831 45.5124C50.1892 45.3073 50.3135 44.8507 50.1085 44.4924ZM31.8887 36.2006C31.9365 37.2219 32.0805 38.2312 32.3129 39.2165C32.0527 39.4801 31.6726 39.6032 31.2997 39.5287C30.6953 39.408 30.3018 38.8179 30.4226 38.2135L30.9741 35.4544L31.831 34.9643L31.8887 36.2006ZM28.0032 36.6813C28.4336 36.6813 28.8592 36.5903 29.2581 36.4142L28.957 37.9205C28.8985 38.2132 28.7294 38.4657 28.481 38.6314C28.2325 38.7972 27.9345 38.8561 27.6418 38.7975C27.349 38.739 27.0965 38.5699 26.9308 38.3215C26.7651 38.0731 26.7062 37.7751 26.7647 37.4823L26.9606 36.5023C27.0309 36.5268 27.1019 36.5498 27.1745 36.5697C27.4484 36.6443 27.7267 36.6813 28.0032 36.6813ZM19.8718 29.811H18.1767V28.4661H19.8718V29.811ZM19.0969 48.0134L17.8173 47.4392C17.5479 47.3185 17.2404 47.3216 16.9732 47.448L15.0754 48.347L12.9779 47.4329C12.7174 47.3194 12.4194 47.3214 12.1602 47.4384L10.1404 48.3507L8.02317 47.4332C7.89513 47.3778 7.75873 47.3501 7.62222 47.3501C7.47476 47.3501 7.32729 47.3824 7.19079 47.447L6.04953 47.9873V40.1598H19.0969V48.0134Z" fill="#EC1F27"/>
<path d="M29.4724 13.513C29.5808 13.1148 29.346 12.7041 28.9477 12.5957C27.4762 12.195 25.9367 12.3912 24.6128 13.1484C23.289 13.9055 22.3393 15.1329 21.9385 16.6044C21.8301 17.0027 22.065 17.4134 22.4632 17.5218C22.529 17.5397 22.5951 17.5483 22.66 17.5483C22.9887 17.5483 23.29 17.3297 23.3806 16.9972C23.6764 15.9108 24.3776 15.0047 25.3548 14.4459C26.3322 13.8869 27.4686 13.742 28.555 14.0378C28.9531 14.1461 29.364 13.9112 29.4724 13.513Z" fill="#EC1F27"/>
<path d="M27.77 16.9228C28.1679 17.031 28.5789 16.7964 28.6875 16.3982C28.796 16.0001 28.561 15.5893 28.1629 15.4808C27.4614 15.2898 26.7279 15.3828 26.0977 15.7431C25.4676 16.1034 25.0154 16.6883 24.8243 17.39C24.7159 17.7883 24.9507 18.199 25.349 18.3074C25.4147 18.3253 25.4808 18.3339 25.5458 18.3339C25.8745 18.3339 26.1758 18.1153 26.2664 17.7828C26.3525 17.4663 26.5562 17.2027 26.8397 17.0405C27.1231 16.8785 27.4535 16.8366 27.77 16.9228Z" fill="#EC1F27"/>
<path d="M27.4778 19.6623C27.6158 19.9036 27.8678 20.0388 28.1271 20.0388C28.2529 20.0388 28.3804 20.007 28.4974 19.94C28.8556 19.7352 28.98 19.2786 28.7751 18.9203L28.5269 18.4863C28.322 18.128 27.8654 18.0037 27.5072 18.2086C27.149 18.4135 27.0247 18.87 27.2296 19.2283L27.4778 19.6623Z" fill="#EC1F27"/>
</g>
<defs>
<clipPath id="clip0_208_1999">
<rect width="51" height="51" fill="white"/>
</clipPath>
</defs>
</svg>
